<?xml version="1.0" encoding="utf-8"?>
<!-- Generator: Adobe Illustrator 27.5.0, SVG Export Plug-In . SVG Version: 6.00 Build 0)  -->
<svg version="1.1" id="Layer_1" xmlns="http://www.w3.org/2000/svg" xmlns:xlink="http://www.w3.org/1999/xlink" x="0px" y="0px"
	 viewBox="0 0 7000 3938.461" style="enable-background:new 0 0 7000 3938.461;" xml:space="preserve">
<path style="fill:#CFE5F1;" d="M0,2257.469V0h7000v2256.215v1682.246H4788.423h-154.154h-483.961h-87.269h-330.854H0V2257.469z"/>
<path style="fill:#8AB8E1;" d="M5165.423,1121.535l-0.5-52.396l175.769-0.227c24,0.096,64.039,5.558,86.231-2.462l0.346,55.089
	L5165.423,1121.535z"/>
<path style="fill:#8AB8E1;" d="M2759.381,401.315l16.258,17.504l-676.819,608.55l0.273-39.838c15.916-4.839,38.562-33.835,52.2-46.2
	l173.4-156.558l290.319-255.577L2759.381,401.315z"/>
<path style="fill:#8AB8E1;" d="M2098.877,1108.081l173.069-0.177l-2.039,170.404c-17.465,0.742-35.727,0.458-52.961,3.304
	c-29.919-0.819-51.527,2.792-74.5,24.131c-14,13-23.019,27.758-30.762,45.027l-13.527-4.261l-0.335-234.389L2098.877,1108.081z"/>
<path style="fill:#80BDDC;" d="M6695.769,626.215c21.654-1.85,45.616,4.25,64.577,14.719c23.77,13.139,43.116,38.392,49.962,64.689
	c6.961,26.831,4.615,57.669-10.347,81.546c-18.577,29.623-44.769,45.973-78.346,53.754c-27.653,0.554-49.5-1.446-73.654-16.723
	c-23.5-14.839-40.308-39.258-46.115-66.492c-5.923-27.808-1.423-57.435,14.5-81.1
	C6635.692,647.877,6662.385,632.796,6695.769,626.215z"/>
<path style="fill:#8AB8E1;" d="M5165.616,1266.169l261.692,1.212l0.077,75.811l-98.577,1.331
	c-9.692,17.835-3.961,63.235-3.808,84.665l-129.923-0.173l1.039,204.881l-0.654,2.492c-10.5,2.158-19,5.854-29.192,2.054
	c-2.615-10.727-1.461-21.35-0.769-32.235L5165.616,1266.169z"/>
<path style="fill:#80BDDC;" d="M2759.381,401.315c-17.685-32.333-25.389-67.787-15.166-104.082
	c7.808-27.727,26.923-55.039,52.654-68.665c27.131-14.367,57.977-16.363,87.115-7.109c29.627,9.41,57.273,32.06,71.173,59.949
	c12.935,25.95,16.481,57.179,6.592,84.774c-11.277,31.463-30.458,57.371-61.519,71.352c-25.777,11.604-58.142,16.158-85.008,5.231
	c-14.646-5.954-27.223-14.208-39.585-23.946L2759.381,401.315z"/>
<path style="fill:#27ABBF;" d="M4858.808,432.039c61.231-4.504,124.615,16.781,172.885,54.581
	c55.154,43.208,88.961,106.146,97.115,175.546c7.808,66.308-10.615,133.685-52.692,185.938c-43.384,53.9-104.577,85.323-173,92.75
	c-65.692,2.896-128.77-10.296-181.808-51.419c-52.807-40.996-90.577-104.696-98.462-171.477
	c-7.692-65.089,11.654-136.581,52.423-188.042C4721.731,471.235,4785.539,440.638,4858.808,432.039z"/>
<path style="fill:#FEFEFE;" d="M4895.846,541.958l20.885,5.473c36.73,11.385,66.038,35.208,83.884,69.415
	c8.077,15.481,20.308,44.369,14.616,61.785c-12.231,2.608-26.692,1.131-39.231,1.161l-80.385,0.112L4895.846,541.958z"/>
<path style="fill:#FEFEFE;" d="M4792.077,572.65c17.423-5.231,35.385,5.296,51.461,12.142c-0.115,19.054-1.961,41.173,1.731,59.823
	c5.924,29.915,29.846,67.588,54.77,84.311c13.5,9.039,29.5,14.589,43.615,22.781l60.846,39.042l-63.269,50.6
	c-7.077,3.55-14.885,6.827-22.77,7.892c-26.269,3.535-63.038-23.942-82.73-39.881c-34.5-27.911-56.192-57.692-76.692-96.777
	c-7.77-14.812-16.846-30.392-18.27-47.362C4737.923,632.154,4771.461,596.165,4792.077,572.65z"/>
<path style="fill:#ADD3F1;" d="M560.665,291.317c45.265-2.761,92.154-0.262,137.565-0.186l265.615,0.359l207.108-0.225
	c36.246-0.026,74.596-2.685,110.481,1.295c21.639,2.4,40.746,9.567,59.469,20.672c38.2,22.653,63.792,57.735,74.546,100.68
	c9.546,38.127,0.712,80.215-19.858,113.165c-24.511,39.265-63.688,61.465-107.75,71.319c-38.104,6.719-80.158,3.623-118.919,3.715
	l-206.381,0.112l-259.008-0.696c-49.227-0.238-100.612,2.431-149.415-3.588c-20.904-2.577-42.573-11.4-60.458-22.308
	c-35.896-21.892-58.842-59.058-68.319-99.381c-8.519-36.25,2.823-80.027,22.523-110.828
	C474.177,324.294,513.388,301.216,560.665,291.317z"/>
<path style="fill:#8AB8E1;" d="M948.092,359.464c48.05-3.897,80.477,9.889,94.685,57.986c1.292,4.373-0.45,11.342,3.735,13.161
	c3.027,1.319,15.962-0.031,19.881,0.008c22.785,0.215,40.596,3.412,60.361,15.365c36.139,21.854,45.45,58.965,54.977,97.05
	l-251.15-1.373L713.1,541.465c5.292-34.069,8.219-68.204,25.977-98.623c11.339-19.427,30.954-37.904,53.288-43.281l3.631-0.796
	c6.304-1.431,12.05-2.3,18.496-2.55c27.123-1.058,39.896,9.627,59.092,27.288C891.377,389.119,912.435,372.373,948.092,359.464z"/>
<path style="fill:#27ABBF;" d="M663.323,1100.827c-0.404-48.127-6.339-395.492,3.665-409.246l3.25-4.646
	c3.342-5.461,6.681-11.038,10.954-15.838c11.25-12.635,30.281-21.319,47.062-21.988l231.185,0.635l486.938,0.369L1852.031,650
	c69.531-0.115,141.335-3.75,210.638,0.142c9.119,0.512,16.965,3.219,23.546,9.654c5.969,5.835,10.542,13.115,12.069,21.388
	c4.731,25.619,0.623,60.339,0.665,87.004l0.142,219.342l-0.273,39.838l0.058,80.712l-1.054,4.038
	c-6.692-22.277-1.419-58.946-1.1-82.854c-33.789,5.827-74.608,1.965-109.254,2.446c-13.265,0.185-29.373-2.004-41.223,4.411
	l-0.315-3.077l-0.727-238.715l-1131.762-0.292l0.323,306.731L663.323,1100.827z"/>
<path style="fill:#FEFEFE;" d="M732.538,682.05c8.977-2.842,21.215-3.296,30.185,0.027c10.592,3.923,19.631,12.177,24.354,22.419
	c5.8,12.569,6.112,26.423,0.277,39.181c-5.319,11.631-15.581,17.885-26.858,22.715c-7.196,2.635-17.435,3.358-24.869,1.292
	c-11.858-3.296-23.631-12.385-29.211-23.461c-5.027-9.965-6.489-21.692-2.781-32.269
	C708.942,696.823,718.685,689.065,732.538,682.05z"/>
<path style="fill:#FEFEFE;" d="M2003.385,685.469c9.938-1.954,17.231-2.192,26.888,1.212c12.796,4.508,22.635,12.692,28.385,25.108
	c4.935,10.658,6.081,21.061,1.785,32.169c-6.327,16.346-16.365,23.154-31.877,30.062c-7.912,1.869-14.231,2.4-22.15,0.085
	c-13.431-3.931-25.885-13.55-32.169-26.215c-4.762-9.592-6.054-19.265-2.627-29.45
	C1977.392,701.285,1987.596,693.131,2003.385,685.469z"/>
<path style="fill:#27ABBF;" d="M3537.011,748.765c-34.885-86.081-43.788-171.981-6.423-259.688
	c32.6-76.519,95.638-134.916,172.808-165.129c74.508-29.172,167.027-25.504,239.873,6.661
	c71.192,31.435,135.615,93.791,163.923,166.918c31.308,80.942,29.308,167.058-6.654,246.246
	c-17.539,38.569-43.423,63.231-67.539,96.562l-78.692,54.462c-30.808,9.873-61.731,21.158-93.769,26.038
	c-48.15,7.327-94.7,0.558-141.454-10.992l-4.246-1.527C3631.977,878.842,3578.546,823.927,3537.011,748.765z"/>
<path style="fill:#FEFEFE;" d="M3805.992,740.169c8.373-2.011,16.865-1.338,25.065,1.189c12.408,3.827,23.981,14.954,29.596,26.492
	c5.923,12.204,6.5,23.542,1.577,36.35c-6.808,17.677-21.446,26.042-37.888,33.427c-9.473,0.208-18.392,0.158-27.277-3.569
	c-12.281-5.154-22.958-16.038-27.427-28.661c-4.154-11.727-4.223-24.912,1.162-36.238
	C3778.304,753.373,3790.269,746.273,3805.992,740.169z"/>
<path style="fill:#FEFEFE;" d="M3800.961,640.154l18.619-0.458c48.688,1.796,84.342,21.581,117.15,55.896l-27.961,28.142
	c-22.077-17.735-40.962-28.012-67.912-36.758l-5.727-0.6c-45.208-4.123-72.704,11.069-106.15,39.231l-27.865-28.873
	C3731.896,666.231,3758.423,648.681,3800.961,640.154z"/>
<path style="fill:#FEFEFE;" d="M3797.023,544.804l39.5-0.381c62.708,5.031,117.092,32.431,157.554,80.277L3969,652.127
	c-47-31.915-78.038-55.127-136.58-62.865l-4.881-0.354c-64.75-1.696-114.208,20.3-159.854,64.881l-28.058-26.431
	C3686.181,579,3729.381,554.069,3797.023,544.804z"/>
<path style="fill:#FEFEFE;" d="M3802.562,449.173c19.446-1.519,38.746-0.319,58.015,2.419
	c76.154,10.812,148.154,50.804,194.346,112.65l-24,27.75c-51.615-56.004-112.539-87.742-187.462-99.465l-47.719,0.7
	c-75.511,7.1-138.569,41.504-186.173,99.931l-28.55-28.531C3642.612,494.258,3709.715,458.931,3802.562,449.173z"/>
<path style="fill:#4C6A82;" d="M5427.154,602.542c-6.423-51.1-2.039-107.092-1.885-158.631l-85.73,0.008l-0.039-155.802
	l1247.039-0.319v156.467l-102.115-0.069l-165-0.127c-60.116-0.754-719.077-4.981-731.27,1.277l-1.077,385.262l-0.346,110.896
	c-0.039,19.915,1.615,41.746-1.231,61.377l0.923,339.835l-61.347-0.15l-97.692,0.627l-0.077-75.811l-0.039-145.842l-0.346-55.089
	L5427.154,602.542z"/>
<path style="fill:#283860;" d="M5428.769,556.819l-0.308-114.2l156.192-0.608l-0.5,114.296L5428.769,556.819z"/>
<path style="fill:#BBD9F3;" d="M4704.423,1069.165c15.808-6.089,33.538-4.323,50.23-4.373l90,0.065
	c6.539,0.019,22.308,1.965,27.693,0.1c8.461-2.915,11.192-3.4,20.5-3.419c0-12.208,5.5-16.815,3.423-27.35
	c7.962-1.962,13.885-3.615,22.192-2.546c17.962,2.312,38.885-0.831,57.192-0.892l105.539,0.85c25.5-0.715,57.269-5.054,81.615,2.589
	l0.039,4.819l-10.27-1.365l-1.384,4.365l5.422,4.146l0.039,26.615l0.077,4.938l-0.385,188.2l0.961,344.096l8.192-3.796
	c-0.692,10.885-1.846,21.508,0.769,32.235c10.192,3.8,18.692,0.104,29.192-2.054l4.039,128.288l-11.385,35.992l-0.077,230.485
	l0.154,228.338l-234.962-0.758c-1.654-14.504-3.924-28.331-8.192-42.296c-18.808-61.458-49-96.858-105.27-126.95
	c-37.923-25.789-80.73-40.938-123.538-56.292c-36.154-9.6-82.116-21.246-113.77-41.412c-5.192-9.215-15.115-18.123-22.308-25.977
	l-62.923-63.889l-33.962,20.435l-5.346-64.658l-6.808-114.104c34.577-30.511,56.885-63.469,80.078-102.812
	c49.422-98.635,68.076-198.554,63.461-308.638c10.461-3.789,21.23-7.55,28.961-15.889c13.308-14.319,11.654-32.696,11.154-50.869
	c-5.077-22.115-6.884-33.423-26.577-46.165l-2.577-33.365l-12.884-64.742L4596,1069.935L4704.423,1069.165z"/>
<path style="fill:#8AB8E1;" d="M5156.731,1077.708c-4.039,11.762-1.346,31.481-1.308,44.189l-252.192-0.2l-1-51.589l172.577-0.031
	c24.539-0.008,58.5-4.265,81.846,2.692L5156.731,1077.708z"/>
<path style="fill:#8AB8E1;" d="M4704.423,1069.165l189.461,0.312v51.958l-281.154-0.323L4596,1069.935L4704.423,1069.165z"/>
<path style="fill:#8AB8E1;" d="M4902.923,1635.908L4902,1265.173l254.346,0.735l0.961,344.096l-1.307,26.142
	c-14.347,6.1-40.231,2.888-56.347,2.892l-139.77-0.296c-13.653-0.038-43.038,3.3-54.923-1.669L4902.923,1635.908z"/>
<path style="fill:#8AB8E1;" d="M4654.769,1265.385l238.846-0.508l0.539,372.4c-14.846,9.523-69.847,4.008-89.308,4.008
	l-253.653-0.504c49.422-98.635,68.076-198.554,63.461-308.638c10.461-3.789,21.23-7.55,28.961-15.889
	C4656.923,1301.935,4655.269,1283.558,4654.769,1265.385z"/>
<path style="fill:#8AB8E1;" d="M4477.923,1857.696l63.346,0.846c4.308,0.058,17.923,1.723,21.385,0.288
	c7.346-3.069,22.577-23.104,29.423-29.481c53.347-49.515,120.462-68.861,192-65.131c63.923,3.331,119.462,35.185,166.231,76.781
	c4.961,4.408,19.308,20.558,24.731,22.288c7.385,2.365,37.154-6.765,47.73-7.119c68.77-2.296,113.154,18.881,162.308,65.135
	c-0.346-35.777-6.653-83.761,2.308-117.965l0.73-2.669l-0.077,230.485l0.154,228.338l-234.962-0.758
	c-1.654-14.504-3.924-28.331-8.192-42.296c-18.808-61.458-49-96.858-105.27-126.95c-37.923-25.789-80.73-40.938-123.538-56.292
	c-36.154-9.6-82.116-21.246-113.77-41.412c-5.192-9.215-15.115-18.123-22.308-25.977l-62.923-63.889l-33.962,20.435
	L4477.923,1857.696z"/>
<path style="fill:#BBD9F3;" d="M4716.231,2033.196c41.538-6.831,88.269-2.973,130.538-2.946l233.077,0.239
	c35.73,0.062,72.692,2.442,108.192,0.665l0.154,228.338l-234.962-0.758c-1.654-14.504-3.924-28.331-8.192-42.296
	c-18.808-61.458-49-96.858-105.27-126.95C4801.846,2063.7,4759.039,2048.55,4716.231,2033.196z"/>
<linearGradient id="SVGID_1_" gradientUnits="userSpaceOnUse" x1="4422.2891" y1="2484.9121" x2="3877.1689" y2="2430.0598" gradientTransform="matrix(1 0 0 -1 0 3940)">
	<stop  offset="0" style="stop-color:#EAA776"/>
	<stop  offset="1" style="stop-color:#FDCAA1"/>
</linearGradient>
<path style="fill:url(#SVGID_1_);" d="M4033,840.335c71.615-24.177,129.269-39.8,206.192-35.385
	c37.577,3.223,75,9.827,110.616,22.631c98.923,33.608,179,101.204,225.308,195.185l20.885,47.169l16.731,51.177l12.884,64.742
	l2.577,33.365c19.692,12.742,21.5,24.05,26.577,46.165c0.5,18.173,2.154,36.55-11.154,50.869c-7.73,8.339-18.5,12.1-28.961,15.889
	c4.615,110.085-14.039,210.004-63.461,308.638c-23.193,39.342-45.5,72.3-80.078,102.812l6.808,114.104l5.346,64.658L4307.5,2040.715
	c-33.193,21.881-73.885,43.311-101.885,71.023c-12.115,11.985-17.115,25.542-22.423,41.381l-5.039-3.2l-8.769-147.861
	c-1.846-33.954-2.5-68.785-8.808-102.265l0.462-2.692c-41.577,6.219-74.846,9.815-116.769,8.208
	c-19.423-4.542-40.539-11.535-56.769-23.415c-67.346-49.289-89.654-160.642-100.654-237.989l-7.346-117.069
	c-3.539-12.361-3.461-27.45-4.885-40.346L3867,1375.165c-9.269-3.619-17.077-8.954-25.289-14.427
	c-9.408-17.223-6.488-33.989-6.423-53.323c-19.292-1.589-70.035,1.304-82.977-9.981l7.558-14.265
	c15.069-11.631,34.077-20.546,38.612-39.285c-0.461-8.158,1.9-16.342,3.546-24.3l0.962-1.365
	c7.877-10.573,6.915-23.185,8.754-35.742l11.123-60.831c2.146-15.369,7.396-30.739,11.581-45.685
	c26.592-73.073,64.284-126.977,119.861-181.165L4033,840.335z"/>
<path style="fill:#132449;" d="M4020.077,1700.677l86.538,5.992l-36.538,12.454c-29.192,3.915-55.077,5.235-81.231-10.308
	l0.231-5.181L4020.077,1700.677z"/>
<path style="fill:#0A1438;" d="M3879.885,1420.423l8.269-4.473c24.039-13.388,49.731-22.146,77.039-14.311l4.423,10.327l-5,8.546
	c-12.885,1.731-26.615-0.435-39.077,2.039c-14.154,2.804-23.577,11.258-38.731,8.996L3879.885,1420.423z"/>
<path style="fill:#132449;" d="M4127,1403.419c11.846-4.665,28.346-1.261,40.077,2.139c22.27,6.461,48.116,17.573,59.615,38.888
	l-3.807,11.285c-1.346,0.488-7,3.096-8,2.915c-1.885-0.331-11-9.262-13.077-10.904c-22.423-17.746-42.039-23.389-70.384-23.812
	l-6.462-6.839L4127,1403.419z"/>
<path style="fill:#132449;" d="M3930.731,1492.308c5.615-1.904,12.807-0.981,18.731-0.846c4.077,3.319,8.885,6.942,12.154,11.104
	c6.077,7.788,7.461,19.481,5.731,29.058c-2.115,11.931-8,18.223-17.885,24.631c-2.961,0.938-5.769,2.481-8.885,2.019
	c-8.692-1.292-15.654-4.846-20.731-12.258c-6.269-9.123-7.269-20.769-5.462-31.485
	C3916.115,1503.9,3922.115,1498.058,3930.731,1492.308z"/>
<path style="fill:#132449;" d="M4147.192,1492.308l3.308-0.154c10.961,0.458,18.692,3.446,25.461,12.446
	c5.731,7.592,8.154,17.661,6.654,27.023c-1.846,11.488-9.384,18.988-18.23,25.642c-2.578,0.877-5.423,2.027-8.192,2.058
	c-9.692,0.104-15.539-3.419-21.692-10.558c-8.885-10.288-8.846-24.431-7.808-37.142
	C4132.423,1500.492,4136.039,1497.373,4147.192,1492.308z"/>
<path style="fill:#F68133;" d="M4010.5,1482.05c5.039-0.185,5.846,1.027,10.115,3.419l-13.077,134.019
	c11.654,4.842,35.538,12.6,42.308,23.246c-6.846,6.673-16.115,6.481-25.192,7.638c-19.615-4.696-35.654-11.323-52.654-22.169
	c-0.308-10.623,6.461-24.839,9.077-35.615l16.115-66.373C4000.308,1511.462,4001.5,1494.504,4010.5,1482.05z"/>
<path style="fill:#132449;" d="M3835.289,1307.415l258.788,5.338c-27.577,32.154-53.961,51.642-95.038,64.658
	c-5.269,1.662-19.539,3.635-23.385,6.654c-35.346,3.065-62.077,0.719-96.769-7.062l1,43.419l6.923,11.123l-6.038,4.719l1.885,90.673
	l-3.154-0.104c-3.539-12.361-3.461-27.45-4.885-40.346L3867,1375.165c-9.269-3.619-17.077-8.954-25.289-14.427
	C3832.304,1343.515,3835.223,1326.75,3835.289,1307.415z"/>
<path style="fill:#283860;" d="M3879.5,1526.835l3.154,0.104c6,61.938,3,126.55,28.808,184.804
	c15.269,34.396,39.154,61.119,65.154,87.75c13.577-21.288,24.192-36.996,50.231-43.092c11.192-2.619,20.308-2.073,30.269,4.454
	c12.5,8.215,23.154,21.139,33.308,32.085c6.654-1.888,8.769-2.277,12.5-8.362c8.884-14.592,5.115-42.888,4.461-59.7
	c17.846,32.854,33.923,65.538,72.5,77.381c42,12.889,89.115-1.204,126.153-21.885c53.462-29.854,86.616-75.365,113.424-129.181
	c0.153,55.908-25.616,125.177-65.231,165.4c-42.616,43.281-94.347,58.869-151.846,70.742c-12.154,2.512-30.538,4.154-41.346,9.765
	c-41.577,6.219-74.846,9.815-116.769,8.208c-19.423-4.542-40.539-11.535-56.769-23.415
	c-67.346-49.289-89.654-160.642-100.654-237.989L3879.5,1526.835z"/>
<linearGradient id="SVGID_00000155835309454094314850000013349535949882144129_" gradientUnits="userSpaceOnUse" x1="4491.7607" y1="2093.9368" x2="4143.1372" y2="2035.8273" gradientTransform="matrix(1 0 0 -1 0 3940)">
	<stop  offset="0" style="stop-color:#D17742"/>
	<stop  offset="1" style="stop-color:#F7AE78"/>
</linearGradient>
<path style="fill:url(#SVGID_00000155835309454094314850000013349535949882144129_);" d="M4440.5,1598.985l22.846,4.8
	c-6.077,12.081-0.846,32.412,0.423,45.789c2.885,30.961,6.539,62.958,7.346,94.019l6.808,114.104l5.346,64.658L4307.5,2040.715
	c-33.193,21.881-73.885,43.311-101.885,71.023c-12.115,11.985-17.115,25.542-22.423,41.381l-5.039-3.2l-8.769-147.861
	c-1.846-33.954-2.5-68.785-8.808-102.265l0.462-2.692c10.808-5.611,29.192-7.254,41.346-9.765
	c57.5-11.873,109.23-27.462,151.846-70.742c39.615-40.223,65.384-109.492,65.231-165.4c0.038-3.031,0.192-5.792,0.923-8.754
	C4423.77,1628.339,4428.269,1606.739,4440.5,1598.985z"/>
<path style="fill:#132449;" d="M4233.385,1302.735c25.923-2.65,51.961-5.104,77.384-10.935c29.384-6.75,58.039-16.762,87.808-21.962
	c52.654-9.196,108.385-6.865,161.616-3.954c11.769,0.642,40.731,0.204,50.231,6.823l4.231,59.435
	c4.615,110.085-14.039,210.004-63.461,308.638c-23.193,39.342-45.5,72.3-80.078,102.812c-0.808-31.062-4.461-63.058-7.346-94.019
	c-1.269-13.377-6.5-33.708-0.423-45.789l-22.846-4.8c-7.346-8.862-7.077-18.165-13.692-25.335
	c-26.039-39.077-32.846-94.904-44.731-139.923C4364.346,1366.827,4288.769,1334.731,4233.385,1302.735z"/>
<path style="fill:#EFA87A;" d="M4426.808,1573.65c-1.154-35.489-6.846-81.431,19.654-109.819
	c7.462-8.035,13.692-11.773,24.885-12.069c11.423-0.308,20.769,5.542,28.308,13.631c16.154,17.246,20.961,42.342,19.923,65.281
	c-0.884,20.4-9.153,42.304-24.692,56.019c-9.154,8.085-19.423,14.808-31.539,17.092l-22.846-4.8
	C4433.154,1590.123,4433.423,1580.819,4426.808,1573.65z"/>
<path style="fill:#F68133;" d="M4469.269,1488.889l9.692-1.212l8.462,8.05c-5.885,4.446-9.808,11.842-12.77,18.519
	c-5.654,12.785,5.577,18.319,9.654,29.342l-17.73,10.258l-9.539,16.25l-3.192-2.573
	C4452.923,1543.358,4452.961,1508.223,4469.269,1488.889z"/>
<path style="fill:#F8A531;" d="M4033,840.335c71.615-24.177,129.269-39.8,206.192-35.385c37.577,3.223,75,9.827,110.616,22.631
	c98.923,33.608,179,101.204,225.308,195.185l20.885,47.169l16.731,51.177l12.884,64.742l2.577,33.365
	c19.692,12.742,21.5,24.05,26.577,46.165c0.5,18.173,2.154,36.55-11.154,50.869c-7.73,8.339-18.5,12.1-28.961,15.889l-4.231-59.435
	c-9.5-6.619-38.462-6.181-50.231-6.823c-53.23-2.911-108.962-5.242-161.616,3.954c-29.769,5.2-58.423,15.212-87.808,21.962
	c-25.423,5.831-51.461,8.285-77.384,10.935l-139.308,10.019l-258.788-5.338c-19.292-1.589-70.035,1.304-82.977-9.981l7.558-14.265
	c15.069-11.631,34.077-20.546,38.612-39.285c-0.461-8.158,1.9-16.342,3.546-24.3l0.962-1.365
	c7.877-10.573,6.915-23.185,8.754-35.742l11.123-60.831c2.146-15.369,7.396-30.739,11.581-45.685
	c26.592-73.073,64.284-126.977,119.861-181.165L4033,840.335z"/>
<path style="fill:#ED6B30;" d="M4239.192,804.95c37.577,3.223,75,9.827,110.616,22.631c-13.846,7.427-30.692,10.092-45.577,15.4
	c-24.923,8.904-49.962,20.846-72.462,34.8c-95,58.908-159.346,159.911-184.654,267.496l-71.077-1.542
	c13-51.908,28.461-99.511,54.192-146.665c39.923-73.158,93.769-125.773,165.077-168.519
	C4209.384,820.1,4223.308,809.6,4239.192,804.95z"/>
<path style="fill:#F8A531;" d="M3802.027,1219.585l130.204,13.177c94.231,5.508,189.693,0.973,283.423-9.727
	c36.039-4.111,71.27-9.269,106.347-18.642c23.461-6.261,47.039-16.092,70.692-20.873c27.539-5.565,57.654-4.458,85.654-4.411
	c49.27,0.089,98.23,1.473,147.269,6.746l2.577,33.365c19.692,12.742,21.5,24.05,26.577,46.165c0.5,18.173,2.154,36.55-11.154,50.869
	c-7.73,8.339-18.5,12.1-28.961,15.889l-4.231-59.435c-9.5-6.619-38.462-6.181-50.231-6.823
	c-53.23-2.911-108.962-5.242-161.616,3.954c-29.769,5.2-58.423,15.212-87.808,21.962c-25.423,5.831-51.461,8.285-77.384,10.935
	l-139.308,10.019l-258.788-5.338c-19.292-1.589-70.035,1.304-82.977-9.981l7.558-14.265c15.069-11.631,34.077-20.546,38.612-39.285
	C3798.019,1235.727,3800.381,1227.542,3802.027,1219.585z"/>
<path style="fill:#ED6B30;" d="M3802.027,1219.585l130.204,13.177c94.231,5.508,189.693,0.973,283.423-9.727
	c36.039-4.111,71.27-9.269,106.347-18.642c23.461-6.261,47.039-16.092,70.692-20.873c27.539-5.565,57.654-4.458,85.654-4.411
	c49.27,0.089,98.23,1.473,147.269,6.746l2.577,33.365l-148.346-6.258c-27.615-0.219-57.154-1.927-84.346,3.062
	c-23.731,4.354-47.115,13.727-70.346,20.304c-29.308,8.285-59.5,13.812-89.577,18.269c-141.884,21.023-290.307,20.404-431.842-1.604
	l-5.254-9.108C3798.019,1235.727,3800.381,1227.542,3802.027,1219.585z"/>
<path style="fill:#ADD3F1;" d="M3537.011,748.765c41.535,75.161,94.965,130.077,177.827,159.55l4.246,1.527
	c46.754,11.55,93.304,18.319,141.454,10.992c32.038-4.881,62.961-16.165,93.769-26.038
	c-55.577,54.188-93.269,108.092-119.861,181.165c-4.185,14.946-9.435,30.315-11.581,45.685l-11.123,60.831
	c-1.838,12.558-0.877,25.169-8.754,35.742l-0.962,1.365c-1.646,7.958-4.008,16.142-3.546,24.3
	c-4.534,18.738-23.542,27.654-38.612,39.285l-7.558,14.265c12.942,11.285,63.685,8.392,82.977,9.981
	c-0.065,19.335-2.985,36.1,6.423,53.323c8.212,5.473,16.019,10.808,25.289,14.427l7.615,111.323
	c1.423,12.896,1.346,27.985,4.885,40.346l7.346,117.069c11,77.346,33.308,188.7,100.654,237.989
	c16.231,11.881,37.346,18.873,56.769,23.415c41.923,1.608,75.193-1.989,116.769-8.208l-0.462,2.692
	c-33.346,34.373-59.769,70.919-89.692,108.008c-42.577,1.885-77.654,7.465-118.308,18.919
	c-28.231,12.685-63.115,26.073-87.154,45.708c-57.192,40.985-103.858,103.385-137.354,164.827c-10.561-3.177-21.527-4.539-32.4-6.25
	c-4.358-15.058-9.777-40.339-21.192-51.258c-13.742-13.15-33.488-11.265-51.092-11.419l-402.892,0.915
	c5.766-5.623,87.181-2.227,101.5-2.269l-0.169-110.627l0.312-3.289l0.385-212.35l43.808-2.727l2.777-0.858
	c34.977-10.938,66.254-33.785,83.031-66.938c6.281-12.411,11.642-26.896,13.219-40.777c4.292-37.842,0.608-79.165,0.419-117.442
	l-0.885-131.773c-0.362-35.892,0.808-69.646-10.481-104.138c-13.096-40.023-44.296-66.95-80.75-85.338
	c-34.631-11.05-65.808-9.135-101.681-9.112l-120.277,0.304l-0.027-262.562l-1.011-195l-6.085-4.054l-0.085,42.523l-0.181,156.7
	l-0.961,262.458c-35.688,0.004-244.889,5.246-261.942-2.881l-9.996-0.065c-24.089,3.815-54.431,0.212-79.058,0.131l-178.215,0.25
	l-72.023,0.558l0.119-530.504l767.185,1.865l151.146,0.015c22.831,0.065,52.477,3.677,74.523-2.027L3537.011,748.765z"/>
<path style="fill:#E6E7E6;" d="M3714.838,908.315l4.246,1.527l-0.438,165.204l-0.442,46.677l0.015,353.461l0.408,165.746
	l-6.15,1.588l-3.496-35.738l-0.6-324.454l-0.019-160.508l0.138-45.954l0.042-125.973c0-8.173-2.473-28.235,0.011-35.273
	C3709.031,913.261,3713.592,909.565,3714.838,908.315z"/>
<path style="fill:#8AB8E1;" d="M3708.362,1121.819l-243.954-0.323l0.165-45.354l243.927-0.277L3708.362,1121.819z"/>
<path style="fill:#8AB8E1;" d="M3154.423,816.961l246.55,0.354l0.146,44.719l-247.008,1.054L3154.423,816.961z"/>
<path style="fill:#8AB8E1;" d="M2881.188,820.65l5.392-3.696l190.673-0.35c18.896,0.008,51.088-4.638,67.323,3.688l-0.085,42.523
	l-263.204-0.3L2881.188,820.65z"/>
<path style="fill:#8AB8E1;" d="M2871.211,862.323l-264.515-0.354l0.138-46.185l196.081,0.315
	c19.115,0.073,55.612-4.719,71.062,4.054C2869.338,833.365,2870.904,848.496,2871.211,862.323z"/>
<path style="fill:#BBD9F3;" d="M3718.204,1121.723l104.662-0.077l-11.123,60.831c-1.838,12.558-0.877,25.169-8.754,35.742
	l-0.962,1.365c-1.646,7.958-4.008,16.142-3.546,24.3c-4.534,18.738-23.542,27.654-38.612,39.285l-40.946-1.046l0.119,123.138
	c0.011,22.881,1.681,47.212-0.823,69.923L3718.204,1121.723z"/>
<path style="fill:#69AEE6;" d="M3322.135,2053.058l0.385-212.35l43.808-2.727l0.135,261.515l50.75,67.304l134.096,0.565
	c23.554,0.023,48.773-1.696,72.077,0.961l-402.892,0.915c5.766-5.623,87.181-2.227,101.5-2.269l-0.169-110.627L3322.135,2053.058z"
	/>
<path style="fill:#8AB8E1;" d="M3366.461,2099.496l50.75,67.304l-51.5-0.358L3366.461,2099.496z"/>
<path style="fill:#BBD9F3;" d="M3719.085,909.842c46.754,11.55,93.304,18.319,141.454,10.992
	c32.038-4.881,62.961-16.165,93.769-26.038c-55.577,54.188-93.269,108.092-119.861,181.165
	c-4.185,14.946-9.435,30.315-11.581,45.685l-104.662,0.077l0.442-46.677L3719.085,909.842z"/>
<path style="fill:#8AB8E1;" d="M3718.646,1075.046l115.8,0.915c-4.185,14.946-9.435,30.315-11.581,45.685l-104.662,0.077
	L3718.646,1075.046z"/>
<path style="fill:#8AB8E1;" d="M3718.219,1475.185c2.504-22.711,0.834-47.042,0.823-69.923l-0.119-123.138l40.946,1.046
	l-7.558,14.265c12.942,11.285,63.685,8.392,82.977,9.981c-0.065,19.335-2.985,36.1,6.423,53.323
	c8.212,5.473,16.019,10.808,25.289,14.427l7.615,111.323c1.423,12.896,1.346,27.985,4.885,40.346l7.346,117.069l-116.296,0.242
	c-15.308,0-38.154,2.838-51.923-3.215L3718.219,1475.185z"/>
<path style="fill:#8AB8E1;" d="M3151.673,1019.346l224.281-0.323l-0.746,192.535c0.042,22.108,4.8,58.685-1.55,79.158
	c-34.631-11.05-65.808-9.135-101.681-9.112l-120.277,0.304L3151.673,1019.346z"/>
<path style="fill:#8AB8E1;" d="M2614.138,1279.408l0.181-260.173l253.339,0.458l4.427,8.427l-0.673,250.908
	c-24.089,3.815-54.431,0.212-79.058,0.131L2614.138,1279.408z"/>
<path style="fill:#8AB8E1;" d="M3952.577,2026.719l-490.465,0.392l125.973-98.123c21.704-17.196,52.115-48.565,78.973-55.619
	c24.335-6.388,46.458,0.142,66.673,14.192c20.577,14.308,40.127,39.569,66.646,41.388c30.027,2.062,42.838-3.335,65.162-22.677
	c20.538-17.762,49.692-36.312,77.962-23.508c9.807,4.458,19.576,13.273,28.307,19.692c10.731,7.915,19.154,15.119,33.115,15.885
	c16.231,0.885,25.116,0.127,37.308-11.085l2.039-1.95c41.923,1.608,75.193-1.989,116.769-8.208l-0.462,2.692
	c-33.346,34.373-59.769,70.919-89.692,108.008C4028.308,2009.685,3993.231,2015.265,3952.577,2026.719z"/>
<path style="fill:#8AB8E1;" d="M3708.981,1606.781c-0.296,11.362,1.627,27.154-4.538,36.465l-228.842-1.012l0.977-360.265
	l231.804,0.358L3708.981,1606.781z"/>
<path style="fill:#8AB8E1;" d="M2873.977,820.154l7.212,0.496l0.1,41.865l263.204,0.3l-0.181,156.7l-0.961,262.458
	c-35.688,0.004-244.889,5.246-261.942-2.881l-9.996-0.065l0.673-250.908l0.215-0.123l-1.089-165.673
	C2870.904,848.496,2869.338,833.365,2873.977,820.154z"/>
<path style="fill:#E6E7E6;" d="M2873.977,820.154l7.212,0.496l0.1,41.865l-0.423,156.354l0.542,260.223l-9.996-0.065l0.673-250.908
	l0.215-0.123l-1.089-165.673C2870.904,848.496,2869.338,833.365,2873.977,820.154z"/>
<path style="fill:#ADD3F1;" d="M2881.289,862.515l263.204,0.3l-0.181,156.7l-263.446-0.646L2881.289,862.515z"/>
<path style="fill:#CFE5F1;" d="M5585.5,1002.881c2.846-19.631,1.192-41.462,1.231-61.377l0.346-110.896l1.077-385.262
	c12.192-6.258,671.154-2.031,731.27-1.277l165,0.127L6485,545.181l-0.808,795.681l106.192,0.292l6.038,2.6l0.577,1.731
	c7.192,23.785,2.192,61.104,2.039,86.465l107.346-0.054l0.769,202.727l-593.308-0.042l-0.153,48.454l-176.347-0.369
	c-31.961,0.165-65.423-1.623-97.115,2.146l-44.192,0.546c0.23-39.638,6.923-232.223-3-252.592
	c-10.653-2.904-24.807-1.235-36.115-1.315l-75.923-0.961c-15.347-2.612-35.27-0.385-51.077-0.408l-104.039-0.135l-0.808-87.381
	l61.347,0.15L5585.5,1002.881z"/>
<path style="fill:#283860;" d="M5525.077,1342.565l61.347,0.15l94.692-0.027l-0.115,87.8c-15.347-2.612-35.27-0.385-51.077-0.408
	l-104.039-0.135L5525.077,1342.565z"/>
<path style="fill:#8AB8E1;" d="M5753.077,579.489c12.539-3.646,30.192-1.627,43.346-1.662l87-0.081l341.808,0.069
	c7.654,6.877,20.308,16.104,23.769,26.073c1.693,4.919,3.154,15.915,1.154,20.608c-6.308,14.735-13.5,20.161-27.73,26.088
	c-27.5,6.489-64.192,2.381-92.692,2.431l-191.692,0.138l-114.77,0.019c-20.923,0.069-45.077,2.096-65.654-1.146
	c-11.346-1.788-22.654-11.892-28.692-21.258c-4.077-6.335-5.347-16.108-3.308-23.342
	C5729.539,593.492,5741.192,586.046,5753.077,579.489z"/>
<path style="fill:#8AB8E1;" d="M5756.385,708.731l315.269-0.465l101.731,0.065c16.115,0.058,36.654-2.123,51.961,3.058
	c9.308,3.142,17.923,11.619,21.769,20.615c4.385,10.223,4.039,19.896,0.231,30.1c-4.231,11.246-15.193,16.5-25.27,21.362
	c-32.422,3.023-65.769,1.638-98.346,1.727l-169.616-0.065l-126.769-0.408c-22.077-0.1-45.423,1.435-67.27-1.177
	c-10.692-1.277-21.192-7.365-27.269-16.415c-6.731-10.061-4.346-22.577-2.846-33.792
	C5737.192,720.619,5743.538,715.589,5756.385,708.731z"/>
<path style="fill:#4C6A82;" d="M6319.423,444.069l165,0.127L6485,545.181l-0.808,795.681l-164.461,0.777l-0.577-795.235
	L6319.423,444.069z"/>
<path style="fill:#283860;" d="M6319.423,444.069l165,0.127L6485,545.181l-165.846,1.223L6319.423,444.069z"/>
<path style="fill:#4C6A82;" d="M6319.731,1341.639l164.461-0.777l106.192,0.292l6.038,2.6l0.577,1.731
	c7.192,23.785,2.192,61.104,2.039,86.465l107.346-0.054l0.769,202.727l-593.308-0.042l0.423-202.965l116.885-1.638
	c-0.192-23-6.115-66.508,3.077-86.646C6251.154,1335.296,6299.307,1341.469,6319.731,1341.639z"/>
<path style="fill:#283860;" d="M6590.385,1341.154l6.038,2.6l-0.308,86.762L6429,1429.092l0.539-86.081l112.154,1.658
	c14.807-0.027,32.769,1.954,46.884-2.827L6590.385,1341.154z"/>
<path style="fill:#166185;" d="M6319.731,1341.639l164.461-0.777l106.192,0.292l-1.808,0.688c-14.115,4.781-32.077,2.8-46.884,2.827
	l-112.154-1.658l-0.539,86.081l-194.692,0.246l-0.077-86.008C6251.154,1335.296,6299.307,1341.469,6319.731,1341.639z"/>
<path style="fill:#CFE5F1;" d="M813.765,1100.769l-0.323-306.731l1131.762,0.292l0.727,238.715l0.315,3.077
	c11.85-6.415,27.958-4.227,41.223-4.411c34.646-0.481,75.465,3.381,109.254-2.446c-0.319,23.908-5.592,60.577,1.1,82.854
	l0.335,234.389l0.373,242.946l0.169,15.377l-0.215,220.45l93.715,0.408c9.839,0,22.492,2.035,31.188-3.031
	c0.996-9.008,1.615-11.819-1.846-20.035l-32.312-3.942l42.704,0.135c10.485,12.692,16.931,21.735,30.735,31.292l1.719,124.885
	c0.554,16.346,5.981,44.089,0.015,58.454c-5.35-0.027-21.273-0.896-24.977,1.735l190.954,13.019
	c30.377,2.05,64.038,7.766,94.231,6.423c37.923,5.804,77.239,5.339,115.542,7.215c13.769,0.673,33.308-0.692,46.277,3.481
	c8.5,2.738,16.896,9.75,22.015,16.992c14.546,20.585,13.461,54.511,8.838,78.058c-1.446,7.362-5.25,13.673-9.469,19.75
	l-7.688,10.989l-0.427,50.535l-2.808,29.638c-8.473,3.319-16.342,3.442-25.296,3.854l-0.085,170.862l-23.596,0.35l-26.838-0.277
	l-2.377-227.7l-0.8-10.092c-9.215-8.327-15.727-6.896-27.885-7.996l0.369,3.596l-0.342,3.404
	c-1.627,16.881,3.181,76.173-6.058,86.177c-10.192,0.119-26.246,2.354-34.916-2.916l-2.538-16.127l-291.519,1.858l-392.238,0.915
	l-27.15-0.419l-176.2,0.719l-4.458-30.362l-0.254,109.804l-171.473,0.404c-33.104-0.1-69.719,3.019-102.358-2.331l0.581-78.339
	l-314.685-0.427l0.062-324.981l0.008-36.739l-0.631-404.408l-133.446-0.408l-577.211-2.688c-5.457-29.477-1.129-67.535-1.277-97.973
	l153.245-0.319l-0.085-288.104l155.881,0.208L813.765,1100.769z"/>
<path style="fill:#8AB8E1;" d="M1387.542,1552.031c38.723-21.65,75.061-65.331,108.558-95.365l147.119-129.608l-0.769,32.638
	l-3.554,4.042l-204.689,188.531L1387.542,1552.031z"/>
<path style="fill:#CFE5F1;" d="M1638.896,1363.739l3.9,16.765l1.246,171.819l-209.835-0.054L1638.896,1363.739z"/>
<path style="fill:#283860;" d="M878.627,1100.227l94.685,0.323l-1.431,287.808c-26.931-4.489-62.223,0.127-90.035,0.331
	l-2.677-227.973L878.627,1100.227z"/>
<path style="fill:#8AB8E1;" d="M1873.508,1115.527c9.938-0.292,25.312-3.127,33.288,2.423
	c-8.992,14.558-29.531,34.177-43.727,43.908l-2.065,2.05l-25.35,23.315l-0.377,1.75l-177.627,159.104l-15.2,11.619l0.769-32.638
	l0.565-3.123c-2.977-23.888-0.858-50.292-0.919-74.435l-0.919-132.158l193.638,0.5l33.796,1.508L1873.508,1115.527z"/>
<path style="fill:#69AEE6;" d="M1873.508,1115.527c9.938-0.292,25.312-3.127,33.288,2.423
	c-8.992,14.558-29.531,34.177-43.727,43.908l-2.065,2.05l-25.35,23.315l-0.377,1.75l-177.627,159.104l-15.2,11.619l0.769-32.638
	l0.565-3.123c19.923-11.312,40.939-34.942,58.285-50.658l129.046-117.7l4.808-4.365l-0.339-33.369l33.796,1.508L1873.508,1115.527z"
	/>
<path style="fill:#BBD9F3;" d="M1835.585,1117.842l33.796,1.508l-7.858,9.496l-25.6,22.365L1835.585,1117.842z"/>
<path style="fill:#166185;" d="M1387.542,1552.031l46.665,0.238l209.835,0.054l23.927,0.531c9.196,14.55,3.3,60.65,3.1,79.623
	c-5.619,3.877-9.819,5.112-16.492,6.369l-0.154,81.854l-273.054-0.35l-1.138-80.335l0.435-2.3l-14.438-5.239l-2.819-12.096
	c4.658-20.704-3.839-48.4,4.615-67.123L1387.542,1552.031z"/>
<path style="fill:#4C6A82;" d="M1380.665,1637.715c63.569-3.604,128.508-1.05,192.258-0.869c24.869,0.069,57.812-4.065,81.654,2
	l-0.154,81.854l-273.054-0.35l-1.138-80.335L1380.665,1637.715z"/>
<path style="fill:#166185;" d="M879.169,1160.715l2.677,227.973c27.811-0.204,63.104-4.819,90.035-0.331
	c22.135,1.212,140.196-4.511,151.715,3.654c2.842,25.735,6.104,69.565,0.161,94.608c-14.777,7.542-40.869,3.742-57.542,3.492
	l-133.446-0.408l-577.211-2.688c-5.457-29.477-1.129-67.535-1.277-97.973l153.245-0.319l372.088,0.423L879.169,1160.715z"/>
<path style="fill:#283860;" d="M1123.596,1392.011c2.842,25.735,6.104,69.565,0.161,94.608l-153.573,0.35l0.719-94.527
	L1123.596,1392.011z"/>
<path style="fill:#4C6A82;" d="M507.527,1388.723l-0.085-288.104l155.881,0.208l150.442-0.058l64.862-0.542l0.542,60.489
	l0.446,228.431L507.527,1388.723z"/>
<path style="fill:#ED6B30;" d="M1066.846,1894.519l296.562-274.138l2.819,12.096l14.438,5.239l-0.435,2.3l1.138,80.335l273.054,0.35
	l-0.104,103.246l0.062,33.408l0.131,200.712l0.085,33.95l0.185,96.1c0.019,11.338-2.138,28.4,0.185,39.011l-0.254,109.804
	l-171.473,0.404c-33.104-0.1-69.719,3.019-102.358-2.331l0.581-78.339l-314.685-0.427l0.062-324.981L1066.846,1894.519z"/>
<path style="fill:#CFE5F1;" d="M1066.846,1894.519l296.562-274.138l2.819,12.096l14.438,5.239l-0.435,2.3l1.138,80.335
	l0.092,536.315l-314.685-0.427l0.062-324.981L1066.846,1894.519z"/>
<path style="fill:#8AB8E1;" d="M1066.846,1894.519l296.562-274.138l2.819,12.096l14.438,5.239l-0.435,2.3
	c-20.25,9.173-40.135,36.896-57.085,52.538l-256.308,238.704L1066.846,1894.519z"/>
<path style="fill:#0B8CA7;" d="M1946.246,1036.123c11.85-6.415,27.958-4.227,41.223-4.411c34.646-0.481,75.465,3.381,109.254-2.446
	c-0.319,23.908-5.592,60.577,1.1,82.854l0.335,234.389l0.373,242.946l0.169,15.377l-0.215,220.45l93.715,0.408
	c9.839,0,22.492,2.035,31.188-3.031c0.996-9.008,1.615-11.819-1.846-20.035l-32.312-3.942l42.704,0.135
	c10.485,12.692,16.931,21.735,30.735,31.292l1.719,124.885c0.554,16.346,5.981,44.089,0.015,58.454
	c-5.35-0.027-21.273-0.896-24.977,1.735l190.954,13.019c30.377,2.05,64.038,7.766,94.231,6.423
	c37.923,5.804,77.239,5.339,115.542,7.215c13.769,0.673,33.308-0.692,46.277,3.481c8.5,2.738,16.896,9.75,22.015,16.992
	c14.546,20.585,13.461,54.511,8.838,78.058c-1.446,7.362-5.25,13.673-9.469,19.75l-7.688,10.989l-0.427,50.535l-2.808,29.638
	c-8.473,3.319-16.342,3.442-25.296,3.854l-0.085,170.862l-23.596,0.35l-26.838-0.277l-2.377-227.7l-0.8-10.092
	c-9.215-8.327-15.727-6.896-27.885-7.996l0.369,3.596l-0.342,3.404c-1.627,16.881,3.181,76.173-6.058,86.177
	c-10.192,0.119-26.246,2.354-34.916-2.916l-2.538-16.127l-291.519,1.858l-392.238,0.915l-27.15-0.419l-176.2,0.719l-4.458-30.362
	c-2.323-10.612-0.165-27.673-0.185-39.011l-0.185-96.1l-0.085-33.95l-0.131-200.712l-0.062-33.408l0.104-103.246l0.154-81.854
	c6.673-1.258,10.873-2.492,16.492-6.369c0.2-18.973,6.096-65.073-3.1-79.623l-23.927-0.531l-1.246-171.819l-3.9-16.765l3.554-4.042
	l15.2-11.619l177.627-159.104l0.377-1.75l25.35-23.315l2.065-2.05c14.196-9.731,34.735-29.35,43.727-43.908
	c-7.977-5.55-23.35-2.715-33.288-2.423l71.239-67.908L1946.246,1036.123z"/>
<path style="fill:#ADD3F1;" d="M2671.596,2255.135c-0.181-21.088-3.235-48.588,1.704-68.812c9.946-3.362,18.208-9.388,26.827-15.215
	l-0.427,50.535l-2.808,29.638C2688.419,2254.6,2680.55,2254.723,2671.596,2255.135z"/>
<path style="fill:#132449;" d="M2549.069,2270.542l0.966-92.765c8.046-6.562,24.869-3.885,35.538-3.823l4.442,6.327l0.369,3.596
	l-0.342,3.404c-1.627,16.881,3.181,76.173-6.058,86.177C2573.792,2273.577,2557.739,2275.812,2549.069,2270.542z"/>
<path style="fill:#FEFEFE;" d="M2032.977,2152.162c-18.204-3.508-32.496-8.015-43.615-23.785
	c-7.327-10.392-10.004-23.642-7.146-36.069c2.996-13.015,12.35-24.915,23.746-31.761c12.135-7.292,27.585-8.715,41.108-4.727
	c13.465,3.966,25.512,14.246,31.658,26.804c5.535,11.315,5.896,23.261,1.523,35.123c-5.058,13.708-17.746,24.973-31.05,30.377
	l-11.919,4.146L2032.977,2152.162z"/>
<path style="fill:#8AB8E1;" d="M2098.731,1859.435c13.177,0.208,44.331-3.185,54.588,3.188l0.258,147.554l-54.331-3.346
	L2098.731,1859.435z"/>
<path style="fill:#8AB8E1;" d="M1944.746,1047.619l3.185,299.704l-85.454-0.262c0.223-58.1,6.435-123.069-1.085-180.338
	l-0.389-2.815l2.065-2.05c14.196-9.731,34.735-29.35,43.727-43.908c-7.977-5.55-23.35-2.715-33.288-2.423L1944.746,1047.619z"/>
<path style="fill:#BBD9F3;" d="M2189.231,1798.681l42.704,0.135c10.485,12.692,16.931,21.735,30.735,31.292l1.719,124.885
	c0.554,16.346,5.981,44.089,0.015,58.454c-5.35-0.027-21.273-0.896-24.977,1.735l-17.631-1.342l-44.473-3.131l-23.746-0.531
	l-0.258-147.554c-10.258-6.373-41.411-2.981-54.588-3.188l-0.246-34.154l93.715,0.408c9.839,0,22.492,2.035,31.188-3.031
	c0.996-9.008,1.615-11.819-1.846-20.035L2189.231,1798.681z"/>
<path style="fill:#8AB8E1;" d="M2176.9,1863.019c12.115-6.269,31.385-3.673,45.042-3.488l-0.146,154.308l-44.473-3.131
	l-23.746-0.531l-0.258-147.554C2161.219,1863.481,2169.096,1865.015,2176.9,1863.019z"/>
<path style="fill:#CFE5F1;" d="M2153.319,1862.623c7.9,0.858,15.777,2.392,23.581,0.396l0.423,147.688l-23.746-0.531
	L2153.319,1862.623z"/>
<path style="fill:#ADD3F1;" d="M2254.081,2160.727l293.208,14.262l-0.758,79.427l-291.519,1.858L2254.081,2160.727z"/>
<path style="fill:#8AB8E1;" d="M1948.038,2092.073c0.385,20.246,3.462,36.319,18.765,50.735
	c13.296,12.519,34.204,14.269,51.723,13.358c5.969-0.312,9.45-0.685,14.45-4.004l4.304,0.108
	c13.192,7.608,189.319,8.334,216.8,8.458l0.931,95.546l-392.238,0.915l-0.481-165.204L1948.038,2092.073z"/>
<path style="fill:#BBD9F3;" d="M1861.004,1163.908l0.389,2.815c7.519,57.269,1.308,122.238,1.085,180.338l85.454,0.262l0.123,33.45
	l0.1,202.092l-0.011,33.781l0.065,207.215l0.123,34.346l0.05,200.212l-0.342,33.654l-85.746-0.088l0.481,165.204l-27.15-0.419
	l-176.2,0.719l-4.458-30.362c-2.323-10.612-0.165-27.673-0.185-39.011l-0.185-96.1l-0.085-33.95l-0.131-200.712l-0.062-33.408
	l0.104-103.246l0.154-81.854c6.673-1.258,10.873-2.492,16.492-6.369c0.2-18.973,6.096-65.073-3.1-79.623l-23.927-0.531
	l-1.246-171.819l-3.9-16.765l3.554-4.042l15.2-11.619l177.627-159.104l0.377-1.75L1861.004,1163.908z"/>
<path style="fill:#8AB8E1;" d="M1657.65,1348.077l177.627-159.104l0.312,158.419L1657.65,1348.077z"/>
<path style="fill:#8AB8E1;" d="M1948.154,1582.865l-85.596,0.069l-0.139-202.135l85.635-0.027L1948.154,1582.865z"/>
<path style="fill:#8AB8E1;" d="M1948.331,1858.208l0.05,200.212c-27.554,3.215-58.496,0.385-86.419,0.346l-0.062-200.723
	L1948.331,1858.208z"/>
<path style="fill:#8AB8E1;" d="M1948.142,1616.646l0.065,207.215l-83.9,0.523c-5.177-13.977-1.55-41.527-1.554-56.839l0.108-151.246
	L1948.142,1616.646z"/>
<path style="fill:#8AB8E1;" d="M1654.596,2092.015l181.165-0.261l-0.138,165.015l-176.2,0.719l-4.458-30.362
	c-2.323-10.612-0.165-27.673-0.185-39.011L1654.596,2092.015z"/>
<path style="fill:#8AB8E1;" d="M1654.381,1857.354l181.285,0.612l-0.069,200.308l-181.085-0.208L1654.381,1857.354z"/>
<path style="fill:#8AB8E1;" d="M1642.796,1380.504l192.892-0.246l-0.558,202.288l0.069,34.481l0.804,206.481l-181.685,0.438
	l0.104-103.246l0.154-81.854c6.673-1.258,10.873-2.492,16.492-6.369c0.2-18.973,6.096-65.073-3.1-79.623l-23.927-0.531
	L1642.796,1380.504z"/>
<path style="fill:#ADD3F1;" d="M1835.131,1582.546l0.069,34.481c-26.677,0.035-145.7,6.385-160.746-3.35
	c-0.292-11.308-3.212-22.304,3.769-31.442L1835.131,1582.546z"/>
<path style="fill:#ED6B30;" d="M4160.577,1899.792c6.308,33.481,6.962,68.311,8.808,102.265l8.769,147.861l5.039,3.2
	c5.308-15.838,10.308-29.396,22.423-41.381c28-27.712,68.692-49.142,101.885-71.023l175.769-118.362l33.962-20.435l62.923,63.889
	c7.192,7.854,17.115,16.761,22.308,25.977c31.654,20.165,77.615,31.812,113.77,41.412c42.808,15.354,85.615,30.504,123.538,56.292
	c56.27,30.092,86.461,65.492,105.27,126.95c4.269,13.965,6.538,27.792,8.192,42.296c-0.308,39.388-7.192,77.169-12.346,116.031
	l-22.116,161.8l-58.269,408.862l-19.961,138.104c-2.885,20.981-8,43.138-8.039,64.308l1.269,206.935
	c0.077,15.954,4.654,51.427-1.577,65.192c-13.193,3.127-27.885,5.327-40.615,9.719l-3.308,8.481l0.154,176.285l-0.039,102.065
	l0.039,221.946h-154.154h-483.961h-87.269h-330.854l14.789-225.081l7.538-99.765l10.442-140.654l2.619-31.773l-9.515-7.962
	c-6.231-6.238-11.935-15.812-13.669-24.396c-4.538-22.469-1.123-52.815-1.046-75.985l0.535-170.638
	c3.415-24.577,1.165-52.619,1.577-77.562l3.923-145.519c50.304,19.746,126.392,55.685,180.469,45.277l15.538-11.827
	c51.385-43.662,79.384-124.554,84.615-190.196c-13.769-4.604-25.077-18.512-34.923-28.835
	c-31.577-33.142-58.808-71.596-86.423-108.038c-13.961-18.396-36.846-55.808-57.461-66.019c-2.346-1.166-8.281-1.227-11.104-1.646
	l-14.7,11.089l-51.177-139.923l-63.519-175.977l17.377-35.777c33.496-61.442,80.162-123.842,137.354-164.827
	c24.038-19.635,58.923-33.023,87.154-45.708c40.654-11.454,75.731-17.035,118.308-18.919
	C4100.808,1970.712,4127.231,1934.165,4160.577,1899.792z"/>
<path style="fill:#A04014;" d="M4506.038,2947.715c35.847-2.923,82.655,20.373,109.808,43.312L4658,3031.35
	c-22.692-9.954-148.5-59.777-154.5-70.085L4506.038,2947.715z"/>
<path style="fill:#F8A531;" d="M3749.377,2939.127c50.304,19.746,126.392,55.685,180.469,45.277
	c10.385,12.492,30.692,21.696,44.808,29.927l72.115,42.55l48.308,27.465l275.731,161.808
	c61.808,35.569,124.461,79.258,192.423,102.239c35.962,12.154,79.27,17.392,116.731,8.812
	c45.231-10.365,85.154-37.781,109.615-77.454c24.654-39.935,30-87.696,42.923-131.912l1.269,206.935
	c0.077,15.954,4.654,51.427-1.577,65.192c-13.193,3.127-27.885,5.327-40.615,9.719l-3.308,8.481
	c-1.23,10.604-1.962,21.396-4.808,31.704c-19,8.073-46.308,8.496-66.884,11.339c-26.846,3.719-56,10.489-82.962,11.735
	l-153.346,14.192l-24.115,0.716c-229.539,5.338-464.923,14.031-691.2-34.889l2.619-31.773l-9.515-7.962
	c-6.231-6.238-11.935-15.812-13.669-24.396c-4.538-22.469-1.123-52.815-1.046-75.985l0.535-170.638
	c3.415-24.577,1.165-52.619,1.577-77.562L3749.377,2939.127z"/>
<path style="fill:#0A1438;" d="M4088.923,3477.192c232,8.519,474.77,0.169,702.654-47.508l-3.308,8.481
	c-1.23,10.604-1.962,21.396-4.808,31.704c-19,8.073-46.308,8.496-66.884,11.339c-26.846,3.719-56,10.489-82.962,11.735
	l-153.346,14.192l-24.115,0.716c-229.539,5.338-464.923,14.031-691.2-34.889l2.619-31.773l265.196,32.846L4088.923,3477.192z"/>
<path style="fill:#F8A531;" d="M3749.377,2939.127c50.304,19.746,126.392,55.685,180.469,45.277
	c10.385,12.492,30.692,21.696,44.808,29.927l72.115,42.55l48.308,27.465l-6.154,392.846l-56.154-3.158l-265.196-32.846l-9.515-7.962
	c-6.231-6.238-11.935-15.812-13.669-24.396c-4.538-22.469-1.123-52.815-1.046-75.985l0.535-170.638
	c3.415-24.577,1.165-52.619,1.577-77.562L3749.377,2939.127z"/>
<path style="fill:#FEFEFE;" d="M4032.769,3474.035l6.731-318.188c1.192-29.123-2.769-72.519,7.269-98.965l48.308,27.465
	l-6.154,392.846L4032.769,3474.035z"/>
<path style="fill:#283860;" d="M4633.615,3492.942c26.961-1.246,56.116-8.015,82.962-11.735
	c20.577-2.842,47.884-3.265,66.884-11.339c2.846-10.308,3.577-21.1,4.808-31.704l0.154,176.285l-0.039,102.065l0.039,221.946
	h-154.154h-483.961h-87.269h-330.854l14.789-225.081l7.538-99.765l10.442-140.654c226.277,48.919,461.661,40.227,691.2,34.889
	l24.115-0.716L4633.615,3492.942z"/>
<path style="fill:#0A1438;" d="M4063.039,3938.461l-93.577-195.735l179.615,21.112l1.231,174.623H4063.039z"/>
<path style="fill:#132449;" d="M4633.615,3492.942c26.961-1.246,56.116-8.015,82.962-11.735
	c20.577-2.842,47.884-3.265,66.884-11.339c2.846-10.308,3.577-21.1,4.808-31.704l0.154,176.285l-0.039,102.065l0.039,221.946
	h-154.154v-217.054c-33.692-9.442-62.154-20.519-90.654-41.546c-57.23-42.231-76.539-104.938-87.461-172.011l24.115-0.716
	L4633.615,3492.942z"/>
<path style="fill:#283860;" d="M4480.269,3507.135l153.346-14.192l-0.077,203.115c-57.27-20.677-103.846-45.696-130.692-103.431
	C4490.346,3565.731,4484.731,3536.281,4480.269,3507.135z"/>
<path style="fill:#F8A531;" d="M4160.577,1899.792c6.308,33.481,6.962,68.311,8.808,102.265l8.769,147.861l5.039,3.2
	c5.308-15.838,10.308-29.396,22.423-41.381c28-27.712,68.692-49.142,101.885-71.023l175.769-118.362l33.962-20.435l62.923,63.889
	c7.192,7.854,17.115,16.761,22.308,25.977c31.654,20.165,77.615,31.812,113.77,41.412c42.808,15.354,85.615,30.504,123.538,56.292
	c-46.154-7.608-91.692-8.065-131.423,20.958c-36.5,26.681-72.192,81.407-87.115,123.092c-9.385,26.177-12.116,53.646-16.27,80.938
	l-16.769,102.635l-82.155,530.604l-2.538,13.55c-4.385,1.831-2.307,1.877-6.269,0.519l-392-154.677l-51.846-19.45l-23.385-5.277
	c-13.769-4.604-25.077-18.512-34.923-28.835c-31.577-33.142-58.808-71.596-86.423-108.038
	c-13.961-18.396-36.846-55.808-57.461-66.019c-2.346-1.166-8.281-1.227-11.104-1.646l-14.7,11.089l-51.177-139.923l-63.519-175.977
	l17.377-35.777c33.496-61.442,80.162-123.842,137.354-164.827c24.038-19.635,58.923-33.023,87.154-45.708
	c40.654-11.454,75.731-17.035,118.308-18.919C4100.808,1970.712,4127.231,1934.165,4160.577,1899.792z"/>
<path style="fill:#FEFEFE;" d="M4193.269,2425.881l258.231,0.458l-0.385,167.931l-258.808-0.712L4193.269,2425.881z"/>
<path style="fill:#E6E7E6;" d="M4483.269,1922.354l33.962-20.435l62.923,63.889c7.192,7.854,17.115,16.761,22.308,25.977
	l-233,250.189c-17-20.242-92.577-122.631-107.27-126.015c-27.346,1.046-41.731,22.85-59.461,40.904
	c-5.884-3.004-13-3.027-19.539-3.742c5.308-15.838,10.308-29.396,22.423-41.381c28-27.712,68.692-49.142,101.885-71.023
	L4483.269,1922.354z"/>
<path style="fill:#F8A531;" d="M4160.577,1899.792c6.308,33.481,6.962,68.311,8.808,102.265l8.769,147.861l5.039,3.2
	c6.539,0.716,13.654,0.739,19.539,3.742c-22.039,41.7-32.346,91.662-42.077,137.577c-21.539,101.246-34.346,204.011-41.385,307.261
	c-4.615,67.842-5.346,138.089-14.038,205.408l-51.846-19.45l-23.385-5.277c-13.769-4.604-25.077-18.512-34.923-28.835
	c-31.577-33.142-58.808-71.596-86.423-108.038c-13.961-18.396-36.846-55.808-57.461-66.019c-2.346-1.166-8.281-1.227-11.104-1.646
	l-14.7,11.089l-51.177-139.923l-63.519-175.977l17.377-35.777c33.496-61.442,80.162-123.842,137.354-164.827
	c24.038-19.635,58.923-33.023,87.154-45.708c40.654-11.454,75.731-17.035,118.308-18.919
	C4100.808,1970.712,4127.231,1934.165,4160.577,1899.792z"/>
<path style="fill:#ED6B30;" d="M3865.423,2072.427c-1.654,19-13.769,39.138-20.261,57.265
	c-10.138,28.35-18.331,56.885-25.954,85.989l-30.039,142.065c-4.923,29.881-7.511,61.996-14.958,91.262l-63.519-175.977
	l17.377-35.777C3761.565,2175.812,3808.231,2113.412,3865.423,2072.427z"/>
<path style="fill:#FEFEFE;" d="M4160.577,1899.792c6.308,33.481,6.962,68.311,8.808,102.265l8.769,147.861l5.039,3.2
	c6.539,0.716,13.654,0.739,19.539,3.742c-22.039,41.7-32.346,91.662-42.077,137.577c-21.539,101.246-34.346,204.011-41.385,307.261
	c-4.615,67.842-5.346,138.089-14.038,205.408l-51.846-19.45c3.769-128.769,13.077-259.7,31.924-387.169l23.923-135.812
	c11.923-52.596,33.961-96.958,29.346-151.858c-5.038-9.554-9.153-15.458-19.961-18.804c-23.731-7.338-51.961,15.062-71.961,25.985
	l-66.885,34.631c-0.115-6.635,12.346-23.365,16.038-29.596l75.077-117.235C4100.808,1970.712,4127.231,1934.165,4160.577,1899.792z"
	/>
<path style="fill:#80BDDC;" d="M3144.577,820.292l6.085,4.054l1.011,195l0.027,262.562l120.277-0.304
	c35.873-0.023,67.05-1.938,101.681,9.112c36.454,18.388,67.654,45.315,80.75,85.338c11.289,34.492,10.119,68.246,10.481,104.138
	l0.885,131.773c0.188,38.277,3.873,79.6-0.419,117.442c-1.577,13.881-6.938,28.365-13.219,40.777
	c-16.777,33.154-48.054,56-83.031,66.938l-2.777,0.858l-43.808,2.727l-0.385,212.35l-0.312,3.289l0.169,110.627
	c-14.319,0.042-95.734-3.354-101.5,2.269l402.892-0.915c17.604,0.154,37.35-1.731,51.092,11.419
	c11.416,10.919,16.835,36.2,21.192,51.258c10.873,1.711,21.839,3.073,32.4,6.25l-17.377,35.777l63.519,175.977l51.177,139.923
	l14.7-11.089c2.823,0.419,8.758,0.481,11.104,1.646c20.615,10.211,43.5,47.623,57.461,66.019
	c27.615,36.442,54.846,74.896,86.423,108.038c9.846,10.323,21.154,24.231,34.923,28.835
	c-5.231,65.642-33.231,146.534-84.615,190.196l-15.538,11.827c-54.077,10.408-130.165-25.531-180.469-45.277l-3.923,145.519
	c-0.412,24.942,1.838,52.985-1.577,77.562l-0.535,170.638c-0.077,23.169-3.492,53.515,1.046,75.985
	c1.735,8.584,7.438,18.158,13.669,24.396l9.515,7.962l-2.619,31.773l-10.442,140.654l-688.592-1.208l-2.735-4.235l9.392-4.069
	c22.358-12.088,30.296-28.746,37.385-52.15l0.046-3.777l0.542-668.485l0.031-213.862c-0.004-31.504,3.261-66.896-0.3-98.046
	c-1.612-14.096-8.604-28.946-18.735-38.904c-8.569-8.423-21.454-16.235-33.327-18.666c-33.438-6.846-79.804-1.215-114.381-1.181
	l-270.635-0.073l-21.181,0.769l-4.466-1.739l0.358-81.646l23.596-0.35l0.085-170.862c8.954-0.411,16.823-0.534,25.296-3.854
	l2.808-29.638l0.427-50.535l7.688-10.989c4.219-6.077,8.023-12.388,9.469-19.75c4.623-23.546,5.708-57.473-8.838-78.058
	c-5.119-7.242-13.515-14.254-22.015-16.992c-12.969-4.173-32.508-2.808-46.277-3.481c-38.304-1.877-77.619-1.412-115.542-7.215
	c-30.192,1.342-63.854-4.373-94.231-6.423l-190.954-13.019c3.704-2.631,19.627-1.762,24.977-1.735
	c5.965-14.365,0.539-42.108-0.015-58.454l-1.719-124.885c-13.804-9.558-20.25-18.6-30.735-31.292l-42.704-0.135l32.312,3.942
	c3.462,8.215,2.842,11.027,1.846,20.035c-8.696,5.065-21.35,3.031-31.188,3.031l-93.715-0.408l0.215-220.45l-0.169-15.377
	l-0.373-242.946l13.527,4.261c7.742-17.269,16.762-32.027,30.762-45.027c22.973-21.339,44.581-24.95,74.5-24.131
	c49.969,6.039,107.842,0.173,158.542,0.208l361.758,0.977c26.058,0.1,114.635,6.827,134.166-3.769l9.996,0.065
	c17.054,8.127,226.254,2.885,261.942,2.881l0.961-262.458l0.181-156.7L3144.577,820.292z"/>
<path style="fill:#ED6B30;" d="M2647.915,2426.346l23.596-0.35l1.692,82.965l-21.181,0.769l-4.466-1.739L2647.915,2426.346z"/>
<path style="fill:#132449;" d="M2707.815,2160.119l28.269,0.927c5.911,9.692,3.961,22.739,4.058,33.812l0.239,73.519l-4.296,5.215
	c-10.25,0.092-27.716,2.808-35.315-3.508l-1.069-48.442l0.427-50.535L2707.815,2160.119z"/>
<path style="fill:#D54F23;" d="M3301.208,2764.219l95.885,4.008l1.092,1.154c22.423,25.685,10.835,63.954,45.419,85.954l2.877,1.85
	c11.019,6.315,30.819,3.735,43.6,3.785l112.723-0.273c0.177,10.438-1.842,18.531,6.612,26.269
	c9.777,8.95,27.869,14.069,40.442,18.627l99.519,33.535l-3.923,145.519c-0.412,24.942,1.838,52.985-1.577,77.562
	c-14.123,15.6-27.746,28.534-46.535,38.381c-40.846,21.408-83.173,24.55-127.062,10.231c-31.846-10.392-61.581-32.642-81.531-59.508
	c-22.196-29.896-37.562-72.346-53.769-106.085L3301.208,2764.219z"/>
<path style="fill:#283860;" d="M3623.385,2168.327c17.604,0.154,37.35-1.731,51.092,11.419c11.416,10.919,16.835,36.2,21.192,51.258
	c10.873,1.711,21.839,3.073,32.4,6.25l-17.377,35.777l63.519,175.977l51.177,139.923l14.7-11.089
	c2.823,0.419,8.758,0.481,11.104,1.646c20.615,10.211,43.5,47.623,57.461,66.019c27.615,36.442,54.846,74.896,86.423,108.038
	c9.846,10.323,21.154,24.231,34.923,28.835c-5.231,65.642-33.231,146.534-84.615,190.196l-15.538,11.827
	c-54.077,10.408-130.165-25.531-180.469-45.277l-99.519-33.535c-12.573-4.558-30.665-9.677-40.442-18.627
	c-8.454-7.739-6.435-15.831-6.612-26.269l-112.723,0.273c-12.781-0.05-32.581,2.531-43.6-3.785l-2.877-1.85
	c-34.584-22-22.996-60.269-45.419-85.954l-1.092-1.154l-95.885-4.008l-96.169-195.438c-8.462-21.362-23.858-51.05-14.365-72.985
	c21.923-17.677,62.461-25.985,89.181-34.838l-65.685-191.008c-7.635-21.719-25.685-54.365-27.692-76.788
	c-0.261-2.916,1.927-8.873,2.596-11.965c10.904-12.208,15.569-10.223,31.419-11.954L3623.385,2168.327z"/>
<path style="fill:#80BDDC;" d="M3695.669,2231.004c10.873,1.711,21.839,3.073,32.4,6.25l-17.377,35.777L3695.669,2231.004z"/>
<path style="fill:#FEFEFE;" d="M3329.773,2200c20.446-5.631,50.419-1.581,72.208-1.654l118.765-0.285
	c22.058-0.031,45.4-1.715,67.25,1.392l1.315,10.804c-19.369,6.411-48.338,2.438-69.138,2.473l-124.827,0.023
	c-21.031-0.031-44.638,2.219-65.273-1.869L3329.773,2200z"/>
<path style="fill:#F9C9A1;" d="M3279.854,2460.958c26.623-9.031,65.673-28.792,91.973-17.458
	c7.785,9.954,14.327,17.935,11.927,31.531c-1.492,8.458-9.85,16.9-17.054,21.146c-6.696,3.942-15.188,7.069-22.769,8.777l8.3,30.115
	c26.2-5.331,105.011-29.419,127.154-13.842c4.946,3.477,7.362,8.55,9.996,13.815c-0.196,9.765-0.769,17.438-8.181,24.531
	c-18.696,17.896-89.208,24.565-115.131,27.108l6.485,24.404l95.004-13.95c11.212-1.646,30.431-6.046,40.342,0.827
	c10.431,7.231,12.319,15.869,13.889,27.681c-4.342,10.854-7.627,15.739-18.973,20.331c-31.565,12.777-79.142,13.592-113.496,18.285
	c2.854,9,3.312,15.865,10.896,21.834c25.769-4.954,91.539-25.777,112.742-12.739c8.565,5.265,12.981,12.796,15.05,22.373
	c-2.104,10.927-3.881,17.1-13.919,23.177c-22.961,13.904-66.058,17.739-92.815,24.065c-8.3,1.958-20.792,3.004-26.95,9.169
	l2.769,16.088l-95.885-4.008l-96.169-195.438c-8.462-21.362-23.858-51.05-14.365-72.985
	C3212.596,2478.119,3253.135,2469.812,3279.854,2460.958z"/>
<path style="fill:#EFA87A;" d="M3400.215,2686.092c-1.808,1.246-12.969,1.069-15.608,1.261c-22.515,1.642-41.138,3.942-63.823,1.685
	l5.685-4.431c17.688-14.011,41.035-17.138,62.85-20.35C3392.173,2673.258,3392.631,2680.123,3400.215,2686.092z"/>
<path style="fill:#EFA87A;" d="M3352.231,2535.069l-44.242,7.55c-8.873,0.865-14.504,2.45-21.612-3.392
	c8.235-14.527,42.077-26.565,57.554-34.273L3352.231,2535.069z"/>
<path style="fill:#EFA87A;" d="M3372.554,2611.085c-13.477,4.211-38.265,9.407-52.323,7.188c-8.646-1.369-9.958-3.042-14.55-9.727
	l1.515-2.219c8.823-11.519,44.719-17.223,58.873-19.646L3372.554,2611.085z"/>
<path style="fill:#F9C9A1;" d="M3825.388,2588.931l14.7-11.089c2.823,0.419,8.758,0.481,11.104,1.646
	c20.615,10.211,43.5,47.623,57.461,66.019c27.615,36.442,54.846,74.896,86.423,108.038c9.846,10.323,21.154,24.231,34.923,28.835
	c-5.231,65.642-33.231,146.534-84.615,190.196l-15.538,11.827c-54.077,10.408-130.165-25.531-180.469-45.277l-99.519-33.535
	c-12.573-4.558-30.665-9.677-40.442-18.627c-8.454-7.739-6.435-15.831-6.612-26.269c20.469-11.373,35.604-4.639,57.515-2.95
	l83.266,5.158c-54.15-29.246-117.388-54.362-165.608-92.808c-8-6.381-13.777-14.085-13.346-24.796
	c0.388-9.558,5.719-12.877,12.273-18.635c26.073-8.396,161.635,73.416,196.015,88.612c-10.946-13.227-31.035-25.661-45.327-35.285
	l-101.254-62.523c-16.727-9.669-35.157-18.465-49.058-32c-3.562-10.669-4.473-14.166-2.365-25.638
	c8.016-9.515,10.104-11.539,22.496-15.462c20.9,4.473,41.042,18.069,59.538,28.492l111.373,63.058
	c7.177,3.758,15.781,10.131,23.558,7.669l-112.15-70.946c-17.492-10.769-50.465-25.131-60.4-43.581
	c-4.496-8.346-3.112-15.565-0.696-24.3c3.292-3.365,7.435-9.334,11.989-10.385c6.565-1.519,11.527-2.008,18.011,0.027
	c19.308,6.058,40.289,22.239,58.181,32.319l178.915,105.023C3860.731,2684.285,3839.965,2640.75,3825.388,2588.931z"/>
<path style="fill:#FEFEFE;" d="M3144.577,820.292l6.085,4.054l1.011,195l0.027,262.562l120.277-0.304
	c35.873-0.023,67.05-1.938,101.681,9.112c36.454,18.388,67.654,45.315,80.75,85.338c11.289,34.492,10.119,68.246,10.481,104.138
	l0.885,131.773c0.188,38.277,3.873,79.6-0.419,117.442c-1.577,13.881-6.938,28.365-13.219,40.777
	c-16.777,33.154-48.054,56-83.031,66.938l-2.777,0.858l-43.808,2.727l-0.385,212.35l-112.438-158.892
	c-9.739-13.608-28.231-46.319-42.95-51.089c-1.985,0.662-9.054,2.239-10.254,3.419c-2.058,2.031-1.4,297.854-1.4,329.061
	c0,14.15,4.304,71.192-3.727,79.646c-5.577-8.85-3.539-20.827-3.531-31.277l0.038-69.504l0.185-308.965l-270.3-0.769l1.288,306.35
	l0.177,71.85c0.015,10.215,1.75,21.904-3.004,31.115l-5.673-2.723c-3.558-34.627-0.808-71.892-0.696-106.777l0.469-205.081
	c0.023-27.962,4.269-64-1.958-91.073l-0.508-1.981l-314.304,0.296l1.119,184.104c-8.473,7.485-19.135,2.512-30.058,3.854
	c-30.192,1.342-63.854-4.373-94.231-6.423l-190.954-13.019c3.704-2.631,19.627-1.762,24.977-1.735
	c5.965-14.365,0.539-42.108-0.015-58.454l-1.719-124.885c-13.804-9.558-20.25-18.6-30.735-31.292l-42.704-0.135l32.312,3.942
	c3.462,8.215,2.842,11.027,1.846,20.035c-8.696,5.065-21.35,3.031-31.188,3.031l-93.715-0.408l0.215-220.45l-0.169-15.377
	l-0.373-242.946l13.527,4.261c7.742-17.269,16.762-32.027,30.762-45.027c22.973-21.339,44.581-24.95,74.5-24.131
	c49.969,6.039,107.842,0.173,158.542,0.208l361.758,0.977c26.058,0.1,114.635,6.827,134.166-3.769l9.996,0.065
	c17.054,8.127,226.254,2.885,261.942,2.881l0.961-262.458l0.181-156.7L3144.577,820.292z"/>
<path style="fill:#80BDDC;" d="M2098.158,1346.508l13.527,4.261c-0.419,38.046,8.946,214.589-2.796,233.308l-10.358,5.377
	L2098.158,1346.508z"/>
<path style="fill:#ED6B30;" d="M2464.215,1656.411c7.008-1.292,15.677-0.5,22.358,2.185c7.631,3.069,14.958,10.062,17.685,17.923
	c2.938,8.473,3.496,25.731-0.627,33.742c-5.962,11.581-15.831,15.589-27.312,19.585c-4.877,0.188-9.458,0.085-14.234-1.089
	c-14.016-3.45-21.523-12.542-28.258-24.485c-0.642-8.596-1.823-18.204,2.185-26.165
	C2442.415,1665.373,2450.958,1660.235,2464.215,1656.411z"/>
<path style="fill:#F68133;" d="M2457.792,1573.889c40.842,1.731,61.466,9.154,94.365,32.769l-30.292,28.927
	c-11.581-9.438-24.069-15.646-37.427-22.212c-28.858-0.839-40.015,2.423-64.258,18.112c-11.977-7.642-22.004-18.088-32.242-27.865
	C2411.158,1588.2,2429.723,1578.354,2457.792,1573.889z"/>
<path style="fill:#8AB8E1;" d="M2098.7,1604.831l12.654,9.011c7.246,61.373-17.131,124.358,39.369,168.85
	c12.296,9.681,23.235,13.435,38.508,15.989l32.312,3.942c3.462,8.215,2.842,11.027,1.846,20.035
	c-8.696,5.065-21.35,3.031-31.188,3.031l-93.715-0.408L2098.7,1604.831z"/>
<path style="fill:#F68133;" d="M2452.435,1481.469l8.727-0.515c63.138-1.562,109.504,25.815,153.504,67.931l-30.581,29.015
	c-24.454-26.773-56.769-41.339-91.416-49.519l-10.269-0.539c-54.596-1.589-86.827,13.073-126.15,50.296l-32.6-30.869
	C2362.511,1509.962,2397.996,1489.285,2452.435,1481.469z"/>
<path style="fill:#F8A531;" d="M2436.746,1396.027c14.4-1.804,28.969-1.708,43.458-1.373
	c79.515,1.827,141.808,44.646,194.888,100.108l-32.188,30.5c-41.492-41.081-78.511-70.211-137.458-81.827l-32.546-3.069
	c-75.065-2.304-128.642,35.062-180.834,84.046l-33.696-27.519C2310.535,1442.946,2360.369,1407.877,2436.746,1396.027z"/>
<path style="fill:#ADD3F1;" d="M2262.669,1830.108c10.05,5.25,22.004,11.869,33.346,13.469c41.931,5.915,90.985,1.065,133.577,1.096
	l326.527-1.435l80.462-0.246c10.058,0.011,22.458-1.985,31.273,3.377l-314.304,0.296l1.119,184.104
	c-8.473,7.485-19.135,2.512-30.058,3.854c-30.192,1.342-63.854-4.373-94.231-6.423l-190.954-13.019
	c3.704-2.631,19.627-1.762,24.977-1.735c5.965-14.365,0.539-42.108-0.015-58.454L2262.669,1830.108z"/>
<path style="fill:#69AEE6;" d="M3015.942,1328.204l10.669-1.169l19.269,29.523l56.531,1.004
	c7.354-3.377,17.015-23.227,21.661-30.673l69.558,26.277l-10.004,37.288l52.088,49.777l20.473-13.346
	c10.888,7.188,25.727,42.181,31.669,55.165l-18.161,15.385c1.404,9.215,5.442,34.739,10.538,42.335
	c3.292,4.904,17.204,13.508,22.285,17.496c3.931,10.346,0.704,19.938-0.862,30.769c-7.981,6.758-19.365,8.177-29.331,10.627
	l-21.877,54.719l28.377,22.661c-10.739,16.788-23.642,31.308-36.754,46.223l-30.196-20.938
	c-14.808,13.262-31.062,23.777-47.654,34.608l2.858,35.539l-55.808,20.615l-18.139-31.008c-16.781,0.185-44.534-5.596-59.865-1.592
	c-4.131,1.081-16.481,24.058-19.577,29.035l-59.85-19.896l8.416-32.446l-47.25-37.169l-29.873,17.192l-38.442-57.05l30.319-21.569
	l-11.342-55.8l-39.019-14.142l5.139-52.915c9.069-8.015,21.923-7.804,33.431-8.969l20.723-49.989l-25.308-26.723l38.462-47.904
	l28.138,21.823c14.177-9.258,32.539-18.592,42.989-32.027c-2.031-8.996-3.758-16.158-1.715-25.419L3015.942,1328.204z"/>
<path style="fill:#FEFEFE;" d="M3064.731,1392.765c42.027,1.358,74.927,10.573,109.562,35.985
	c34.511,25.319,59.931,63.246,65.662,106.065c5.392,40.281-2.323,84.627-27.546,117.204c-33.373,43.1-76.904,65.427-130.435,72.227
	c-41.146-0.938-79.115-8.754-112.296-34.769c-37.204-29.165-61.754-65.715-66.865-113.177c-4.75-44.112,9.5-87.865,37.427-122.119
	C2972.896,1414.123,3014.485,1398.05,3064.731,1392.765z"/>
<path style="fill:#ADD3F1;" d="M3106.446,1659.877l-0.604,0.388c-25.55,8.873-68.485,2.958-92.1-10.708
	c-25.146-14.55-45.027-40.935-52.05-69.265c-6.761-27.254-0.539-54.365,13.865-77.762c14.735-23.923,40.381-42.915,67.989-48.885
	c26.315-5.689,67.9-2.292,90.531,12.488c24.792,16.188,44.127,47.984,49.173,76.935c4.715,27.035-2.727,52.812-18.165,74.896
	C3148.662,1636.515,3131.173,1653.508,3106.446,1659.877z"/>
<path style="fill:#69AEE6;" d="M3106.446,1659.877l-2.889-3.846c9.889-13.331,16.562-29.085,27.969-41.162
	c11.327-0.819,23.396-3.065,33.558,3.096C3148.662,1636.515,3131.173,1653.508,3106.446,1659.877z"/>
<path style="fill:#27ABBF;" d="M5427.385,1343.192l97.692-0.627l0.808,87.381l104.039,0.135c15.808,0.023,35.73-2.204,51.077,0.408
	l75.923,0.961c11.308,0.081,25.461-1.589,36.115,1.315c9.923,20.369,3.231,212.954,3,252.592l44.192-0.546
	c31.692-3.769,65.154-1.981,97.115-2.146l176.347,0.369l0.153-48.454l593.308,0.042l1.692,47.031l0.346,574.85l290.808-0.289
	v1682.246H4788.423l-0.039-221.946l0.039-102.065l-0.154-176.285l3.308-8.481c12.73-4.392,27.422-6.592,40.615-9.719
	c6.231-13.765,1.654-49.239,1.577-65.192l-1.269-206.935c0.039-21.169,5.154-43.327,8.039-64.308l19.961-138.104l58.269-408.862
	l22.116-161.8c5.154-38.862,12.039-76.642,12.346-116.031l234.962,0.758l-0.154-228.338l0.077-230.485l11.385-35.992l-4.039-128.288
	l0.654-2.492l-1.039-204.881l129.923,0.173c-0.154-21.431-5.885-66.831,3.808-84.665L5427.385,1343.192z"/>
<path style="fill:#8AB8E1;" d="M6113.846,1634.581l593.308,0.042l1.692,47.031l-183.923,0.165c-28-0.077-59.347-3.023-86.962,1.038
	l-597.73,1.954c31.692-3.769,65.154-1.981,97.115-2.146l176.347,0.369L6113.846,1634.581z"/>
<path style="fill:#ADD3F1;" d="M6437.961,1682.858c27.615-4.062,58.962-1.115,86.962-1.038l183.923-0.165l0.346,574.85
	l-61.269,0.088l0.269-319.923l0.153-86.85c0.039-15.904,1.539-34.054-1.269-49.581c-3.308-18.335-16-37.735-29-50.696
	c-41.884-41.692-96.423-39.635-150.73-39.266L6437.961,1682.858z"/>
<path style="fill:#7D93A5;" d="M5427.385,1343.192l97.692-0.627l0.808,87.381l104.039,0.135c15.808,0.023,35.73-2.204,51.077,0.408
	l75.923,0.961c11.308,0.081,25.461-1.589,36.115,1.315c9.923,20.369,3.231,212.954,3,252.592l-351.731,0.377l-94.115,0.277
	c-18.73,0.073-38.577-1.238-57,2.662c-24.577,5.204-47.616,19.361-65.269,36.915c-11.654,11.592-20.847,24.546-28.423,39.088
	l-4.039-128.288l0.654-2.492l-1.039-204.881l129.923,0.173c-0.154-21.431-5.885-66.831,3.808-84.665L5427.385,1343.192z"/>
<path style="fill:#166185;" d="M5427.385,1343.192l97.692-0.627l0.808,87.381l-198.461,0.254l1.384-85.677L5427.385,1343.192z"/>
<path style="fill:#ADD3F1;" d="M5793.038,1432.765c9.923,20.369,3.231,212.954,3,252.592l-351.731,0.377l-94.115,0.277
	c-18.73,0.073-38.577-1.238-57,2.662c-24.577,5.204-47.616,19.361-65.269,36.915c-11.654,11.592-20.847,24.546-28.423,39.088
	l-4.039-128.288l0.654-2.492l597.346-2.427L5793.038,1432.765z"/>
<path style="fill:#80BDDC;" d="M5188.193,2259.492l-0.27,870.477l0.307,252.127c0.077,39.985-3.884,85.781,2.462,125.192
	c4,24.735,18.731,48.896,35.962,66.704c22.23,22.958,48.615,27.631,75.153,42.212l-513.384-1.754l-0.154-176.285l3.308-8.481
	c12.73-4.392,27.422-6.592,40.615-9.719c6.231-13.765,1.654-49.239,1.577-65.192l-1.269-206.935
	c0.039-21.169,5.154-43.327,8.039-64.308l19.961-138.104l58.269-408.862l22.116-161.8c5.154-38.862,12.039-76.642,12.346-116.031
	L5188.193,2259.492z"/>
<path style="fill:#80BDDC;" d="M6647.923,2256.592l61.269-0.088l290.808-0.289v1682.246H4788.423l-0.039-221.946l0.039-102.065
	l513.384,1.754c53.5,5.627,112.308,0.869,166.308,0.927l354.039,0.215l438-0.427c78.423-0.161,159.654,4.323,237.615-3.388
	c36.27-12.338,67.731-21.531,95.962-49.565c25.769-25.554,44.462-61.181,50-97.081c6.154-40.058,2.615-85.685,2.692-126.358
	l0.039-250.827L6647.923,2256.592z"/>
<path style="fill:#4C6A82;" d="M6497.769,3613.531l140.885,0.058c20-0.065,45.423-3.25,64.462,1.073
	c8.884,2.023,18.846,8.261,25.153,14.896c9.539,10.015,14.192,24.642,13.539,38.323c-0.539,12.238-5.731,23.104-14.961,31.181
	c-5.615,4.935-17.885,14.304-24.885,16.515c-5.5,1.731-16.577,0.219-22.884,0.289l-59.731,0.454l-294.654,0.554l-1536.308-0.358
	l0.039-102.065l513.384,1.754c53.5,5.627,112.308,0.869,166.308,0.927l354.039,0.215l438-0.427
	C6338.577,3616.758,6419.808,3621.242,6497.769,3613.531z"/>
<path style="fill:#166185;" d="M5355.654,1745.204l615-0.635l263.961-0.104c45.27,0.015,91.77-2.1,136.923,0.415
	c12.346,0.685,24.5,3.708,35.461,9.554c23.924,12.792,42.385,34.619,49.924,60.823c5.923,20.596,4.115,44.115,4.192,65.415
	l0.077,111.996l-0.077,362.054l-0.307,794.942l0.769,307.996c-0.615,19.142-4.5,34.923-14.192,51.488
	c-19.923,33.873-49.5,49.277-86.23,58.385c-69.577,4.908-140.961,1.746-210.692,1.796l-384.346,0.127l-287.269-0.1
	c-43.461-0.035-90.577,3.662-133.692-0.619c-18-1.789-38.23-9.331-52.423-20.638c-24.654-19.589-45.654-48.419-49-80.477
	c-2.77-26.227-0.77-54.438-0.808-80.954v-152.362l0.115-485.581l0.539-609.881L5243.5,1951.4c0-31.635-1.885-64.658,0.615-96.154
	c2.039-25.95,11.808-50.135,28.654-70.089C5295.115,1758.631,5322.231,1748.562,5355.654,1745.204z"/>
<path style="fill:#FEFEFE;" d="M6006.462,2370.938c13.615-5.608,37.692-2.55,52.577-2.592l96.23-0.019
	c14.423,0.039,33-2.058,46.654,2.511v8.658c-16.308,8.292-164.923,3.692-193.039,1.7L6006.462,2370.938z"/>
<path style="fill:#FEFEFE;" d="M6004.231,2203.419l3-0.792c18.615-4.531,190.654-3.854,200.461,2.458l-2.385,9.204
	c-25.039,2.573-187.923,4.985-201.654-1.927L6004.231,2203.419z"/>
<path style="fill:#FEFEFE;" d="M5496.192,2370.938c20.654-6.446,53.692-2.219,75.654-2.246l90.577,0.019
	c15.923,0.031,35.077-1.992,50.423,2.227l0.308,8.588c-12.846,5.919-40.192,2.589-54.885,2.596l-160.308-0.927L5496.192,2370.938z"
	/>
<path style="fill:#FEFEFE;" d="M5496.154,2528.204c29.5-3.735,62.692-0.658,92.539-0.515c40.961,0.196,83.691-2.115,124.461,1.961
	v9.958c-25.154,3.208-210.308,4.854-220.346-2.804L5496.154,2528.204z"/>
<path style="fill:#FEFEFE;" d="M5495.615,2203.419c19.654-5.792,50.308-1.923,71.077-1.992l94.039-0.166
	c15.538,0,34.961-2.223,49.846,2.158l-1.192,10.258c-16.615,2.869-35.692,1.15-52.615,1.169l-98.73,0.038
	c-17.192,0.004-49.039,4.262-63.654-3.75L5495.615,2203.419z"/>
<path style="fill:#FEFEFE;" d="M5493.577,2466.665c12.116-3.888,26.231-2.327,38.962-2.346l72.423-0.046l151.077,0.173
	c24.308,0.05,53.039-2.754,76.731,1.765v10.262c-8.846,3.065-20.423,1.554-29.808,1.554l-64.154,0.042
	c-80.192,0.054-163.423,4.565-243.308-1.146L5493.577,2466.665z"/>
<path style="fill:#FEFEFE;" d="M6008.769,2299.146c27.077-2.938,57-0.642,84.346-0.719l164.808-0.339
	c19.884-0.019,69.846-5.6,86.192,2.765l0.692,8.546c-24.731,8.254-68.077,2.677-95.538,2.727l-240.462-0.3l-3.5-4.081
	L6008.769,2299.146z"/>
<path style="fill:#FEFEFE;" d="M5495.192,2302.565c20.539-4.623,45.654-2.1,66.846-2.138l130-0.085l93.423,0.089
	c15.577,0.034,33.654-1.931,48.577,2.135l-1.27,10.742c-31.846,4.065-327.077,4.554-338.384-2.123L5495.192,2302.565z"/>
<path style="fill:#FEFEFE;" d="M6002.461,2145.3c13-3.592,29.231-1.769,42.846-1.796l85.846-0.092l144.654,0.05
	c21.616,0.027,48.039-2.792,68.961,1.839l0.692,9.627c-17.769,8.081-66.038,2.534-87.115,2.546l-254.692-1.154L6002.461,2145.3z"/>
<path style="fill:#FEFEFE;" d="M5494.731,2145.3l3.692-0.992c15.27-3.784,323.961-3.919,332.615-0.908
	c2.231,0.773,4.077,2.377,6.116,3.562l-0.961,9.115c-20.616,4.427-325.231,4.669-341.385-1.069L5494.731,2145.3z"/>
<path style="fill:#F8A531;" d="M5371.808,2451.519c8.461,0.796,17.808,1.419,25.885,4.108c13.692,4.558,27.115,18.681,32.846,31.658
	c5.885,13.281,6.77,28.831,1.077,42.3c-9.346,22.112-27,31.723-48.308,40.023c-12.577-0.827-24.346-1.838-35.577-7.973
	c-13.731-7.496-25.116-20.592-29.462-35.75c-3.692-12.854-1.5-30.504,5.154-42.123
	C5334.692,2464.104,5350.808,2457.092,5371.808,2451.519z"/>
<path style="fill:#F8A531;" d="M5371.269,2120.088c9.5,0.069,20.77,1.604,29.577,5.339c14.539,6.169,25.846,18.846,31.5,33.435
	c6.269,16.269,5.077,30.819-2.577,46.504c-9.384,19.284-25.077,26.704-44.384,33.642c-11.654-0.077-22.116-1.331-32.846-6.242
	c-14.885-6.819-27.539-21.154-32.615-36.731c-4.962-15.296-1.539-32.119,6.153-45.865
	C5336.192,2132.104,5352.269,2125.646,5371.269,2120.088z"/>
<path style="fill:#F8A531;" d="M5363.308,2284.023c11-0.458,25.461-1.896,35.923,1.85c13.384,4.8,25.769,17.158,31.577,30.042
	c7.192,16.062,8.077,31.481,1.731,47.881c-7.846,20.281-24.192,28.35-43.192,36.342c-11.654,0.477-22.539-0.181-33.654-4.192
	c-14.577-5.277-27.192-15.781-33.961-29.835c-6.923-14.308-7.308-29.3-1.731-44.223
	C5327.846,2300.965,5343.846,2292.523,5363.308,2284.023z"/>
<path style="fill:#ED6B30;" d="M6242.577,1843.462c21.885-3.196,39.654-3.035,60.154,6.242
	c20.115,9.092,36.846,28.923,44.308,49.442c8.654,23.765,5.692,53.604-5.423,76.058c-13.423,27.158-34.192,40.442-62.077,49.881
	c-20.077,1.565-38.615,0.75-57.231-7.488c-22.077-9.777-37.192-27.069-45.461-49.6c-9.539-26.085-8-52.858,4.039-77.846
	C6194,1862.815,6215.616,1853.042,6242.577,1843.462z"/>
<path style="fill:#FEFEFE;" d="M6252.846,1878.631l14-2.208c7.346,3.212,10.039,6.388,14.115,13.215l-11.346,8.827
	c3.77,7.027,8.616,13.027,13.539,19.296c2.885-0.511,5.385-1.146,8.192-2.073l2.846-0.981c3.192,4.273,6.692,8.562,7.539,13.977
	c1.23,8.265-2.077,15.085-7.539,21.281c-7.269,8.261-13.308,10.935-23.923,12.1l-1.769-6.392l8.615-4.442
	c8.808-5.688,12.539-9.812,15-19.608l-7.692-9.935c-7.462,11.127-7.962,15.619-21,19.965c-4.192-0.761-8.462-1.669-11.808-4.438
	c-7.884-6.454-9.461-9.208-10.654-19.266c4.77-8.411,8.423-11.981,16.692-16.811c3.192-1.877,2.654-2.112,3.961-5.412l-15.269-2.285
	l-2.615-4.554L6252.846,1878.631z"/>
<path style="fill:#80BDDC;" d="M5703.692,1836.304c17.039-0.715,35.231,3.023,50.461,10.735
	c23.654,11.977,42.577,34.35,49.885,59.885c6.654,23.119,4.654,50.173-7.462,71.065c-15.923,27.4-41.308,41.527-70.884,49.396
	c-21.039,0.635-36.616-0.254-55.578-9.869c-21.384-10.869-39-33.465-45.808-56.335c-7.384-24.75-6.23-51.804,6.808-74.6
	C5647.231,1858.45,5673.269,1844.131,5703.692,1836.304z"/>
<path style="fill:#80BDDC;" d="M5972.308,1839.677c16.577-1.192,34.846-2.854,50.269,4.392c25.5,11.985,46.539,34.015,56.039,60.612
	c7.539,21.138,7.923,47.123-2.039,67.565c-14.346,29.408-40.615,45.438-70.308,56.073c-17.615,1.827-36.23,1.646-52.769-5.335
	c-22.654-9.592-43.5-30.331-52.307-53.477c-8.924-23.492-9.77-46.935,0.884-70.131
	C5916.539,1867.965,5940.961,1851.585,5972.308,1839.677z"/>
<path style="fill:#ED6B30;" d="M5423.5,1839.827c21.654-1.073,39.808,0.392,59.192,11.054c21.308,11.719,40,36.138,46.346,59.523
	c7.038,26.065,4.5,51.181-9.308,74.654c-16.462,27.988-39.77,41.331-70.424,48.935c-20.846,0.935-41.576-1.339-59.961-12.062
	c-22-12.835-41.923-35.569-48.192-60.65c-6.154-24.623-2.654-53.346,10.5-75.165
	C5367.923,1859.212,5394.346,1847.446,5423.5,1839.827z"/>
<path style="fill:#27ABBF;" d="M5391.654,2736.711l636.961-1.096l211.885,0.034c33.77,0.054,70.461-2.692,103.962,0.785
	c13.577,1.412,23.576,6.177,33.538,15.396c13.885,12.796,21.307,27.831,22.077,46.723l-0.153,376.523l0.346,157.958
	c0.039,29.912,1.808,61.188-1.73,90.896c-1.192,10.192-5.5,18.492-12.654,25.781c-19.885,20.227-50.923,15.815-76.808,15.735
	l-641.23-1.742l-206.692,0.631c-38.154,0.112-78,2.508-116-0.719c-10.346-0.881-17.615-5.115-25.539-11.612
	c-13.23-10.892-24.115-28.658-25.308-46.042c-2.384-34.931-0.269-71.696-0.269-106.815l-0.231-218.385l-1.615-184.773
	c-0.269-30.877-3.077-63.742-0.077-94.292c1.616-16.431,6.077-31.688,17.423-44.135
	C5332.769,2732.046,5359.923,2737.554,5391.654,2736.711z"/>
<path style="fill:#ADD3F1;" d="M6293.308,3068.377l7.885-1.462c7.807-0.812,14.922,1.516,20.922,6.519
	c9.423,7.808,12.923,19.058,13.539,30.839c-3.846,12.469-6.961,17.773-17.577,25.642c-4.346,1.335-9.038,2.808-13.615,2.996
	c-9,0.365-18.5-5.385-24.538-11.765c-9.308-9.819-7.385-19.996-7.115-32.258C6278.5,3078.154,6283,3074.242,6293.308,3068.377z"/>
<path style="fill:#CFE5F1;" d="M5376.885,3082.05c7.038-2.612,13.846-3.458,21.346-2.527c10.615,1.319,18.384,5.604,24.923,14.169
	c5.923,7.735,7.5,15.95,6.154,25.45c-2.039,14.588-9.5,20.392-20.385,28.838c-7.192,3.392-17.769,5.231-25.692,3.6
	c-9.461-1.942-17.692-9.558-22.731-17.542c-5.039-7.973-5.615-21.146-3.154-30.15
	C5360.385,3092.877,5367.654,3087.681,5376.885,3082.05z"/>
<path style="fill:#F8A531;" d="M5637.539,2849.573c31.192-6.981,69.538-3.046,101.577-3.112l213.616,0.262l89,0.8
	c13.077,0.196,29.23-1.181,42,1.308c8.269,1.615,15.5,7.904,20,14.758c3.154,4.75,5.154,9.327,5.5,15.042
	c5.154,93.746,0.769,190.915,1.115,284.985l0.27,116.642c0,17.442,2.578,40.096-1.346,56.904c-3,13.027-13.038,18.227-23.577,24.669
	c-20.769,7.673-55.346,3.077-77.654,3.046l-193.731-0.508l-110.654,0.073c-18-0.039-38.5,1.696-56.27-0.592
	c-9.308-1.2-20.153-9.531-25.846-16.819c-4.27-5.45-7.731-12.25-8.692-19.135c-2.692-18.792-0.692-40.792-0.731-59.888
	l-0.346-117.027l-0.27-174.042c0-34.1-2.077-69.562,1.961-103.435C5620.192,2861.927,5626.115,2856.519,5637.539,2849.573z"/>
<path style="fill:#FEFEFE;" d="M5820,3085.142l157.846,163.419l59.577-100.108l32.039,160.946l-3.923,5.131l-17,0.035
	l-357.308-1.077L5820,3085.142z"/>
<path style="fill:#FEFEFE;" d="M5667.115,2885.789l389.154,0.523l-0.192,129.565l-389.153,2.458L5667.115,2885.789z"/>
<path style="fill:#8C3054;" d="M5838.23,2923.461l131.039-0.281c16.385-0.031,39.346-2.896,54.923,1.407l0.539,63.808
	l-186.577-0.719L5838.23,2923.461z"/>
<path style="fill:#80BDDC;" d="M355.559,1487.015l577.211,2.688l133.446,0.408l0.631,404.408l-0.008,36.739l-0.062,324.981
	l314.685,0.427l-0.581,78.339c32.638,5.35,69.254,2.231,102.358,2.331l171.473-0.404l0.254-109.804l4.458,30.362l176.2-0.719
	l27.15,0.419l392.238-0.915l291.519-1.858l2.538,16.127c8.669,5.269,24.723,3.035,34.916,2.916
	c9.239-10.004,4.431-69.296,6.058-86.177l0.342-3.404l-0.369-3.596c12.158,1.1,18.669-0.331,27.885,7.996l0.8,10.092l2.377,227.7
	l26.838,0.277l-0.358,81.646l4.466,1.739l21.181-0.769l270.635,0.073c34.577-0.035,80.942-5.666,114.381,1.181
	c11.873,2.431,24.758,10.242,33.327,18.666c10.131,9.958,17.123,24.808,18.735,38.904c3.562,31.15,0.296,66.542,0.3,98.046
	l-0.031,213.862l-0.542,668.485l-0.046,3.777c-7.088,23.404-15.027,40.062-37.385,52.15l-9.392,4.069l2.735,4.235l688.592,1.208
	l-7.538,99.765l-14.789,225.081H0V2257.469l416.485-1.127l0.108-765.135c-13.081,0.2-47.693,4.369-57.966-2.077L355.559,1487.015z"
	/>
<linearGradient id="SVGID_00000101824573413795363500000009900177629740100484_" gradientUnits="userSpaceOnUse" x1="1978.1434" y1="871.7755" x2="1996.9149" y2="179.7987" gradientTransform="matrix(1 0 0 -1 0 3940)">
	<stop  offset="0" style="stop-color:#5F6D73"/>
	<stop  offset="1" style="stop-color:#4E6E8E"/>
</linearGradient>
<path style="fill:url(#SVGID_00000101824573413795363500000009900177629740100484_);" d="M444.623,3030.438
	c-0.138-32.608,0.431-65.115,15.223-94.965c23.215-46.854,60.581-63.531,107.173-79.458l2.096,1.019
	c11.508,5.354,22.927,5.058,34.788,8.896c42.619,13.784,72.358,45.365,88.377,86.646c18.469,47.6,8.781,99.362,12.004,149.088
	c16.623,0.027,57.954-4.469,71.339,2.565c16.296-7.265,52.965-2.369,71.75-2.358l212.746,0.296l43.492-0.731l159.881-0.338
	l113.889-0.25l0.1,157.992l192.819,0.211c4.823,25.177,26.461,55.123,39.211,77.746l148.904,273.235l79.919,0.427
	c12.135,0,26.165,2.142,36.996-3.919c13.296,8.877,60.554,4.208,78.038,4.258l176.296,0.192c27.177-0.015,59.169,3.119,85.731-1.65
	c16.638,5.831,35.05,4.023,52.488,4.073l84.162,0.1l286.954-0.308c6.319-6.739,16.292-9.758,23.588-15.558
	c18.265-14.511,26.089-32.015,28.843-54.711c86.604-6.335,176.946-1.181,263.907-1.108l97.239,0.131
	c16.812,0.039,35.554-1.596,52.031,1.627l5.354,8.365c-7.088,23.404-15.027,40.062-37.385,52.15l-9.392,4.069l2.735,4.235
	l688.592,1.208l-7.538,99.765l-3464.991,0.935c-14.192-0.95-27.772-8.185-36.813-19.138c-8.766-10.623-13.751-25.319-12.226-39.089
	c1.474-13.308,8.976-26.581,19.468-34.885c20.309-16.073,51.67-11.077,75.979-11.027c24.707,0.054,50.599-1.277,75.106,2.108
	l3.004,0.438l-0.635-260.819c-8.646-1.054-14.492-0.642-21.607-6.158l-0.153-67.308l61.626,0.2L444.623,3030.438z"/>
<path style="fill:#283860;" d="M2691.431,3542.938c86.604-6.335,176.946-1.181,263.907-1.108l97.239,0.131
	c16.812,0.039,35.554-1.596,52.031,1.627l5.354,8.365c-7.088,23.404-15.027,40.062-37.385,52.15l-9.392,4.069
	c-44.915,12.158-105.638,5.035-152.373,5.085l-271.812-0.05c6.319-6.739,16.292-9.758,23.588-15.558
	C2680.854,3583.138,2688.677,3565.635,2691.431,3542.938z"/>
<path style="fill:#80BDDC;" d="M1263.492,3101.1l113.889-0.25l0.1,157.992l-98.046-0.246c2.308,24.546,3.339,51.154,9.308,75.1
	l-155.723,276.084c-11.004,0.038-20.869,2.685-29.392-4.654l-0.016-503.688L1263.492,3101.1z"/>
<path style="fill:#166185;" d="M1377.481,3258.842l192.819,0.211c4.823,25.177,26.461,55.123,39.211,77.746l148.904,273.235
	l-625.396-0.254l155.723-276.084c-5.969-23.946-7-50.554-9.308-75.1L1377.481,3258.842z"/>
<path style="fill:#1D405B;" d="M1377.481,3258.842l192.819,0.211c4.823,25.177,26.461,55.123,39.211,77.746
	c-22.761-3.55-50.385-0.627-73.727-0.739l-172.288,0.142c-22.539,0.196-54.062,4.915-74.754-2.508
	c-5.969-23.946-7-50.554-9.308-75.1L1377.481,3258.842z"/>
<path style="fill:#1D405B;" d="M444.623,3030.438c-0.138-32.608,0.431-65.115,15.223-94.965
	c23.215-46.854,60.581-63.531,107.173-79.458l2.096,1.019c11.508,5.354,22.927,5.058,34.788,8.896
	c42.619,13.784,72.358,45.365,88.377,86.646c18.469,47.6,8.781,99.362,12.004,149.088c16.623,0.027,57.954-4.469,71.339,2.565
	l194.992-0.127l129.665-1.492l0.019,376.173l-0.096,84.042c-0.015,13.831,2.219,31.739-2.773,44.646
	c-37.427,8.711-86.842,2.442-126.035,2.469l-263.196,0.812l-0.342-260.523l-196.558-0.169c-34.204-0.004-71.731-2.985-105.435,1.842
	c-8.646-1.054-14.492-0.642-21.607-6.158l-0.153-67.308l61.626,0.2L444.623,3030.438z"/>
<path style="fill:#283860;" d="M775.819,3279.008c11.589,0.258,24-1.612,33.777,4.754l0.238,66.25l-102.231,0.408
	c-0.288-23.569-2.092-48.204,1.258-71.565L775.819,3279.008z"/>
<path style="fill:#8AB8E1;" d="M704.285,3101.665c16.623,0.027,57.954-4.469,71.339,2.565l0.196,174.777l-66.958-0.154l-3.692-0.862
	L704.285,3101.665z"/>
<path style="fill:#F8A531;" d="M444.623,3030.438c-0.138-32.608,0.431-65.115,15.223-94.965
	c23.215-46.854,60.581-63.531,107.173-79.458l2.096,1.019c11.508,5.354,22.927,5.058,34.788,8.896
	c42.619,13.784,72.358,45.365,88.377,86.646c18.469,47.6,8.781,99.362,12.004,149.088l0.885,176.327
	c-28.954,3.335-60.181,0.892-89.492,0.865l-169.946-0.219L444.623,3030.438z"/>
<path style="fill:#8AB8E1;" d="M355.559,1487.015l577.211,2.688l133.446,0.408l0.631,404.408l-0.008,36.739l-0.062,324.981
	l314.685,0.427l-0.581,78.339l-13.692,2.827c-8.712,15.785-3.108,61.269-3.081,80.973c5.927,4.358,9.896,5.054,17.146,5.796
	l-0.231,428.108c54.696,1.011,95.288,0.558,135.777,43.062c24.565,25.788,33.969,55.362,32.723,90.554
	c-1.054,29.727-15.092,59.158-37.073,79.181c-39.554,36.035-84.95,35.573-135.069,35.346l-113.889,0.25l-159.881,0.338
	l-43.492,0.731l-212.746-0.296c-18.785-0.011-55.454-4.908-71.75,2.358c-13.385-7.034-54.715-2.538-71.339-2.565
	c-3.223-49.727,6.465-101.488-12.004-149.088c-16.019-41.281-45.758-72.862-88.377-86.646c-11.862-3.839-23.281-3.542-34.788-8.896
	l-2.096-1.019c-46.592,15.927-83.958,32.604-107.173,79.458c-14.792,29.85-15.362,62.358-15.223,94.965l-3.923-3.615
	c-14.304-14.542-19.973-48.127-22-67.796c-7.8-75.688-1.665-156.5-1.615-232.892l-0.6-469.792l0.108-765.135
	c-13.081,0.2-47.693,4.369-57.966-2.077L355.559,1487.015z"/>
<path style="fill:#7D93A5;" d="M932.769,1489.704l133.446,0.408l0.631,404.408l-0.008,36.739l-0.062,324.981l-0.465,595.488
	l-133.342-0.55L932.769,1489.704z"/>
<path style="fill:#80BDDC;" d="M1066.777,2256.239l314.685,0.427l-0.581,78.339l-13.692,2.827
	c-8.712,15.785-3.108,61.269-3.081,80.973c5.927,4.358,9.896,5.054,17.146,5.796l-0.231,428.108l-124.35-0.115l-190.362-0.865
	L1066.777,2256.239z"/>
<path style="fill:#F68133;" d="M1381.023,2852.708c54.696,1.011,95.288,0.558,135.777,43.062
	c24.565,25.788,33.969,55.362,32.723,90.554c-1.054,29.727-15.092,59.158-37.073,79.181c-39.554,36.035-84.95,35.573-135.069,35.346
	l-113.889,0.25l-159.881,0.338l-43.492,0.731l-212.746-0.296c-18.785-0.011-55.454-4.908-71.75,2.358
	c-13.385-7.034-54.715-2.538-71.339-2.565c-3.223-49.727,6.465-101.488-12.004-149.088c-16.019-41.281-45.758-72.862-88.377-86.646
	c-11.862-3.839-23.281-3.542-34.788-8.896l-2.096-1.019c35.769-12.042,88.642-5.039,126.996-5.027l238.954,0.188l133.342,0.55
	l190.362,0.865L1381.023,2852.708z"/>
<path style="fill:#ED6B30;" d="M1060.119,3102.169c12.754-10.331,26.719-21.838,37.335-34.396
	c25.996-30.754,36.735-64.815,33.365-104.719c-3.985-47.238-31.204-79.796-65.715-108.715l192.15,0.185
	c25.973,7.077,53.742,32.723,66.923,55.834c17.981,31.523,22.239,66.769,12.423,101.739c-12.319,43.9-37.346,63.269-73.108,89.004
	l-159.881,0.338L1060.119,3102.169z"/>
<path style="fill:#80BDDC;" d="M2590.015,2180.281c12.158,1.1,18.669-0.331,27.885,7.996l0.8,10.092l2.377,227.7l26.838,0.277
	l-0.358,81.646l4.466,1.739l21.181-0.769l270.635,0.073c34.577-0.035,80.942-5.666,114.381,1.181
	c11.873,2.431,24.758,10.242,33.327,18.666c10.131,9.958,17.123,24.808,18.735,38.904c3.562,31.15,0.296,66.542,0.3,98.046
	l-0.031,213.862l-0.542,668.485l-0.046,3.777l-5.354-8.365c-16.477-3.223-35.219-1.588-52.031-1.627l-97.239-0.131
	c-86.961-0.073-177.304-5.227-263.907,1.108c-2.754,22.696-10.577,40.2-28.843,54.711c-7.296,5.8-17.269,8.819-23.588,15.558
	l-286.954,0.308l-84.162-0.1c-17.438-0.05-35.85,1.758-52.488-4.073c-26.562,4.769-58.554,1.635-85.731,1.65l-176.296-0.192
	c-17.484-0.05-64.742,4.619-78.038-4.258c-10.831,6.062-24.862,3.919-36.996,3.919l-79.919-0.427L1609.511,3336.8
	c-12.75-22.623-34.388-52.569-39.211-77.746l-192.819-0.211l-0.1-157.992c50.119,0.227,95.515,0.688,135.069-35.346
	c21.981-20.023,36.019-49.454,37.073-79.181c1.246-35.192-8.158-64.765-32.723-90.554c-40.489-42.504-81.081-42.05-135.777-43.062
	l0.231-428.108c-7.25-0.742-11.219-1.438-17.146-5.796c-0.027-19.704-5.631-65.188,3.081-80.973l13.692-2.827
	c32.638,5.35,69.254,2.231,102.358,2.331l171.473-0.404l0.254-109.804l4.458,30.362l176.2-0.719l27.15,0.419l392.238-0.915
	l291.519-1.858l2.538,16.127c8.669,5.269,24.723,3.035,34.916,2.916c9.239-10.004,4.431-69.296,6.058-86.177l0.342-3.404
	L2590.015,2180.281z"/>
<path style="fill:#ADD3F1;" d="M2590.015,2180.281c12.158,1.1,18.669-0.331,27.885,7.996l0.8,10.092
	c-3.9,15.373-2.188,36.646-2.485,52.681c-8.392,2.123-15.146,1.658-23.685,0.642l-1.754-64.666l-0.392-3.15L2590.015,2180.281z"/>
<path style="fill:#F68133;" d="M2621.077,2426.069l26.838,0.277l-0.358,81.646l-26.523,1.273L2621.077,2426.069z"/>
<path style="fill:#283860;" d="M1655.15,3258.519l67.846,0.088c-4.2,24.119-6.519,51.769-14.212,74.954
	c-27.238,9.289-69.765,1.838-99.273,3.239c-12.75-22.623-34.388-52.569-39.211-77.746L1655.15,3258.519z"/>
<path style="fill:#1D405B;" d="M1708.785,3333.562c5.427,22.992,27.704,47.146,40.477,67.623
	c41.923,67.212,89.415,135.346,126.069,205.358c-10.831,6.062-24.862,3.919-36.996,3.919l-79.919-0.427L1609.511,3336.8
	C1639.019,3335.4,1681.546,3342.85,1708.785,3333.562z"/>
<path style="fill:#ED6B30;" d="M1380.881,2335.004c32.638,5.35,69.254,2.231,102.358,2.331l171.473-0.404l14.965,0.869
	c9.327,14.011,3.746,62.608,3.712,81.427c-6.596,4.569-9.908,4.1-17.773,4.704l-0.465,834.588l-84.85,0.534l-192.819-0.211
	l-0.1-157.992c50.119,0.227,95.515,0.688,135.069-35.346c21.981-20.023,36.019-49.454,37.073-79.181
	c1.246-35.192-8.158-64.765-32.723-90.554c-40.489-42.504-81.081-42.05-135.777-43.062l0.231-428.108
	c-7.25-0.742-11.219-1.438-17.146-5.796c-0.027-19.704-5.631-65.188,3.081-80.973L1380.881,2335.004z"/>
<path style="fill:#166185;" d="M1380.881,2335.004c32.638,5.35,69.254,2.231,102.358,2.331l171.473-0.404l14.965,0.869
	c9.327,14.011,3.746,62.608,3.712,81.427c-6.596,4.569-9.908,4.1-17.773,4.704c-38.846-5.439-83.804-1.304-123.285-1.431
	c-47.904-0.158-104.142-6.039-151.077,2.1c-7.25-0.742-11.219-1.438-17.146-5.796c-0.027-19.704-5.631-65.188,3.081-80.973
	L1380.881,2335.004z"/>
<path style="fill:#4C6A82;" d="M2171.504,3544.638c4.535-8.935,0.577-687.904,0.312-764.112l-0.35-138.638
	c-0.023-23.211-2.473-49.377,1.466-72.085c2.435-14.034,11.596-28.438,21.511-38.515c10.4-10.573,21.923-17.792,36.5-20.927
	c33.161-7.138,79.515-1.658,113.873-1.65l276.219,0.554l26.523-1.273l4.466,1.739l21.181-0.769l270.635,0.073
	c34.577-0.035,80.942-5.666,114.381,1.181c11.873,2.431,24.758,10.242,33.327,18.666c10.131,9.958,17.123,24.808,18.735,38.904
	c3.562,31.15,0.296,66.542,0.3,98.046l-0.031,213.862l-0.542,668.485l-0.046,3.777l-5.354-8.365
	c-16.477-3.223-35.219-1.588-52.031-1.627l-97.239-0.131c-86.961-0.073-177.304-5.227-263.907,1.108
	c-2.754,22.696-10.577,40.2-28.843,54.711c-7.296,5.8-17.269,8.819-23.588,15.558l-286.954,0.308l-84.162-0.1
	c-17.438-0.05-35.85,1.758-52.488-4.073c-4.658-2.138-9.262-4.511-13.354-7.635
	C2181.804,3586.269,2175.469,3568.888,2171.504,3544.638z"/>
<path style="fill:#283860;" d="M2254.365,2612.169c18.904-17.577,38.215-27.377,64.727-26.919
	c23.708,0.415,42.489,12.6,58.015,29.708c14.292,15.746,17.558,31.673,16.319,52.481c-1.027,17.285-9.192,34.9-22.369,46.296
	c-5.677,4.908-11.646,7.615-18.731,9.838c9.358-13.008,16.708-25.065,20.015-40.965c3.785-18.165,0.769-38.239-9.781-53.669
	c-9.261-13.542-22.915-24.662-39.354-27.704c-21.631-4.008-37.042,2.915-54.496,14.888c-14.823,22.777-21.296,41.123-15.596,68.862
	c2.804,13.65,10.423,25.039,18.458,36.142c-5.196-0.642-9.569-1.412-14.004-4.446c-12.869-8.804-22.146-29.862-24.231-44.75
	C2230.088,2648.681,2240.654,2629.761,2254.365,2612.169z"/>
<path style="fill:#ED6B30;" d="M2268.711,2616.123c17.454-11.973,32.865-18.896,54.496-14.888
	c16.438,3.042,30.092,14.162,39.354,27.704c10.55,15.431,13.565,35.504,9.781,53.669c-3.308,15.9-10.658,27.958-20.015,40.965
	l-0.685-0.227l-16.304,6.123c-24.008,7.227-42.161,3.588-63.765-8.342c-8.034-11.104-15.654-22.492-18.458-36.142
	C2247.415,2657.246,2253.888,2638.9,2268.711,2616.123z"/>
<path style="fill:#283860;" d="M2290.211,2634.188l11.792-1.685c12.288,5.069,34.558,10.969,43.365,20.558
	c-2.165,13.981-4.581,27.085-9.188,40.485c-7.896,6.231-21.55,7.011-31.404,6.45c-10.531-0.596-11.488-1.881-18.062-9.396
	C2286.25,2673.658,2282.435,2649.496,2290.211,2634.188z"/>
<path style="fill:#F68133;" d="M2406.385,2776.415c13.819-2.173,29.916-2.673,43.335,1.688c17.088,5.558,33.989,21.504,41.8,37.454
	c9.4,19.181,11.827,40.854,4.239,61.112c-9.416,25.119-27.192,37.069-50.604,48.104c-14.965,1.919-28.4,2.319-42.912-2.562
	c-17.819-5.996-34.138-21.865-42.061-38.769c-9.766-20.846-10.462-34.373-2.939-56.081
	C2366.058,2801.935,2382.915,2788.062,2406.385,2776.415z"/>
<path style="fill:#E6E7E6;" d="M2420.477,2801.708c3.596,0.065,7.869,1.654,11.408,2.508c6.977,12.081-1.977,14.281,1.927,25.785
	c8.046-2,14.631-1.908,22.858-1.181c-5.288,4.042-9.673,7.881-16.577,8.216c-4.177,0.2-6.546,0.5-10.489,2.281
	c8.562,10.246,23.892-0.212,36.462,8.546l-0.865,8.55c-19.608,3.342-64.181,4.062-82.877-1.843l-1.831-4.996
	c9.712-11.973,20.827-11.354,32.835-20.511l-0.215-20.515L2420.477,2801.708z"/>
<path style="fill:#283860;" d="M2526.158,2588.508c15.904-0.593,32.665-2.089,47.223,5.504c20.784,10.839,37.277,29.2,43.927,51.819
	c4.412,15.011,2.761,36.211-5.054,49.815l-1.046,1.788c-11.789,20.539-27.335,30.342-49.154,38.569
	c-13.584,0.038-27.919,0.692-41.019-3.473c-21.335-6.781-37.342-20.577-47.135-40.761c-8.304-17.115-8.661-36.654-2.196-54.396
	C2480.885,2612.173,2503.069,2599.011,2526.158,2588.508z"/>
<path style="fill:#27ABBF;" d="M2540.392,2606.031c8.827,1.085,17.511,2.765,25.558,6.715c13.877,6.815,26.185,22.362,30.535,37.1
	c3.665,12.408,2.608,29.519-3.961,40.827c-11.865,20.431-26.762,25.623-48.15,31.731c-9.669-1.715-20.584-3.104-29.292-7.854
	c-13.7-7.473-24.319-22.1-27.985-37.162c-3.827-15.742-0.739-31.3,8.015-44.912
	C2505.75,2615.942,2522.058,2610.088,2540.392,2606.031z"/>
<path style="fill:#283860;" d="M2531.577,2641.027c4.242-0.8,8.769-1.708,13.1-1.554c7.608,0.269,16.758,4.846,21.315,10.992
	c5.527,7.454,6.873,13.996,5.208,23.039c-2.088,11.323-9.904,16.315-18.719,22.223c-1.923,0.669-2.742,1.054-5,1.242
	c-9.9,0.815-19.292-0.869-26.442-8.365c-7.815-8.192-7.785-16.6-8.273-27.065
	C2518.735,2650.923,2520.823,2647.638,2531.577,2641.027z"/>
<path style="fill:#166185;" d="M2689.727,3538.904l1.704,4.035c-2.754,22.696-10.577,40.2-28.843,54.711
	c-7.296,5.8-17.269,8.819-23.588,15.558l-286.954,0.308l-84.162-0.1c-17.438-0.05-35.85,1.758-52.488-4.073
	c-4.658-2.138-9.262-4.511-13.354-7.635c-20.239-15.438-26.573-32.819-30.538-57.069c9.127-4.419,20.565-2.838,30.596-2.885
	l70.4-0.115l315.065,0.227C2615.946,3541.869,2664.188,3547.942,2689.727,3538.904z"/>
<path style="fill:#1D405B;" d="M2673.204,2508.961l270.635,0.073c34.577-0.035,80.942-5.666,114.381,1.181
	c11.873,2.431,24.758,10.242,33.327,18.666c10.131,9.958,17.123,24.808,18.735,38.904c3.562,31.15,0.296,66.542,0.3,98.046
	l-0.031,213.862l-0.542,668.485l-0.046,3.777l-5.354-8.365c-16.477-3.223-35.219-1.588-52.031-1.627l-97.239-0.131
	c-86.961-0.073-177.304-5.227-263.907,1.108l-1.704-4.035l0.673-247.369l-515.692,0.408l-0.058-55.619
	c8.188-4.073,24.419-1.696,34.108-1.665l92.388,0.289l389.011-0.188l-0.008-189.058l-515.75,0.869l0.004-58.4l515.304,1.327
	l0.088-318.219l0.019-79.823c0.027-13.981,1.777-31.304-1.969-44.804c-4.623-16.658-21.523-28.977-35.823-36.919L2673.204,2508.961z
	"/>
</svg>
