<svg id="Layer_1" enable-background="new 0 0 512 512" viewBox="0 0 512 512" xmlns="http://www.w3.org/2000/svg"><g><path d="m143.2 187.7h-47.2c-39.7 0-73.3-25.7-85.2-61.3h47.2c11.9 35.7 45.5 61.3 85.2 61.3z" fill="#529758"/><path d="m300.3 126.5-23 61.3h-134c-39.7 0-73.3-25.7-85.2-61.3z" fill="#6cb673"/><path d="m79.6 34.2c-23.1 22.3-32.9 60.9-21.6 92.3h-47.2c-20.1-56.7 24.8-119.7 85.2-118.6h47.2c-24.8 0-47.3 10.1-63.6 26.3z" fill="#d3e1ed"/><path d="m344.7 7.9-44.4 118.6h-242.3c-20.1-56.7 24.8-119.7 85.2-118.6z" fill="#f7f5f5"/><path d="m344.7 7.9c-15.1 40.3-52.8 140.8-67.5 179.8h47.2c12-31.9 56-149.1 67.5-179.8h-47.2z" fill="#f8d98f"/><path d="m427.4 20.1c-6 16.1-51.2 136.3-58.3 155.4h-40.1c4.2-11.2 56.1-149.3 58.3-155.4z" fill="#529758"/><path d="m174.9 482.9-87.8 24.9-46.2-32c-25.8-17.9-36.6-50.9-26.2-80.5l72.4-207.5h27.3l-65.9 189c-9.5 27.1.3 57.1 23.8 73.4l42.1 29.1 55.5-15.7z" fill="#c4a363"/><path d="m169.8 463.6-55.5 15.7-42.1-29.1c-23.5-16.3-33.3-46.3-23.8-73.4l65.9-189h52.3c-19.3 59-50.2 153.2-69.6 212.3h56.2z" fill="#f8d98f"/><path d="m181.3 291.3-54.4 17.6 30.2-92.3z" fill="#6cb673"/><path d="m396.5 2.7c-1.1-1.6-2.9-2.5-4.8-2.5h-295.9c-25.6 0-49.7 10-67.7 28-54.8 53.9-24.3 149.6 51 162.1l-70.1 201.2c-11.2 32.1.5 68 28.4 87.3l46.2 32c1.5 1 3.3 1.3 5 .8l87.8-24.9c3.1-.9 4.9-4.1 4.1-7.2l-21.7-82.8c-.7-2.6-3-4.4-5.7-4.4h-48.1l26.4-80.6 51.5-16.7c3.1-1 4.8-4.3 3.8-7.4l-23.5-72.9 7.6-23h153.6c6 .2 6.7-8.3 8.7-12.3h36c2.5 0 4.6-1.5 5.5-3.8l58.3-155.4c1.5-3.7-1.5-8.1-5.5-8h-31.6c.9-2.7 3-6.7.7-9.5zm-360.1 33.8c15.9-15.9 37-24.6 59.4-24.6h240.2l-40 106.8h-281c-8.4-28.8 0-61.1 21.4-82.2zm-17.2 94h272.3l-18.5 49.5h-177.2c-33.3 0-63.2-19.6-76.6-49.5zm154.5 155.2-37.8 12.2 21-64.1zm-22.3-72.8c-15 45.8-45.1 137.7-60.1 183.5-1.3 3.6 1.7 7.8 5.6 7.7h51.7l19.1 72.9-79.6 22.6-43.9-30.4c-23.6-16.3-33.5-46.7-24-73.8l71-203.6h67.2zm134.2-32.9c14.1-37.6 48.6-129.5 63-168.1h34.6c-1.9 4.8-62.2 165.6-63 168.1zm133.2-155.8-53.9 143.6h-27.5l53.9-143.6z"/><path d="m250.1 311.1c3.3 0 5.9-2.6 5.9-5.9v-18.5h18.5c7.7 0 7.7-11.7 0-11.8h-24.4c-3.3 0-5.9 2.6-5.9 5.9v24.4c0 3.2 2.7 5.9 5.9 5.9z"/><path d="m244.2 429.6c0 3.3 2.6 5.9 5.9 5.9h24.4c7.7 0 7.7-11.7 0-11.8h-18.5v-18.5c0-7.7-11.7-7.7-11.8 0z"/><path d="m505.9 399.3c-3.3 0-5.9 2.6-5.9 5.9v18.5h-18.5c-7.7 0-7.7 11.7 0 11.8h24.4c3.3 0 5.9-2.6 5.9-5.9v-24.4c0-3.3-2.6-5.9-5.9-5.9z"/><path d="m505.9 274.9h-24.4c-7.7 0-7.7 11.7 0 11.8h18.5v18.5c0 7.7 11.7 7.7 11.8 0v-24.4c0-3.3-2.6-5.9-5.9-5.9z"/><path d="m483.7 403.4v-96.4c0-3.3-2.6-5.9-5.9-5.9h-199.6c-3.3 0-5.9 2.6-5.9 5.9v96.5c0 3.3 2.6 5.9 5.9 5.9h199.6c3.3-.1 5.9-2.7 5.9-6zm-11.8-5.9h-187.8v-84.7h187.8z"/><path d="m309.2 383.7c3.3 0 5.9-2.6 5.9-5.9v-45.2c0-3.3-2.6-5.9-5.9-5.9s-5.9 2.6-5.9 5.9v45.2c.1 3.3 2.7 5.9 5.9 5.9z"/><path d="m336.8 383.7c3.3 0 5.9-2.6 5.9-5.9v-45.2c0-3.3-2.6-5.9-5.9-5.9s-5.9 2.6-5.9 5.9v45.2c0 3.3 2.6 5.9 5.9 5.9z"/><path d="m364.3 383.7c3.3 0 5.9-2.6 5.9-5.9v-45.2c0-3.3-2.6-5.9-5.9-5.9s-5.9 2.6-5.9 5.9v45.2c0 3.3 2.6 5.9 5.9 5.9z"/><path d="m391.8 383.7c3.3 0 5.9-2.6 5.9-5.9v-45.2c0-3.3-2.6-5.9-5.9-5.9s-5.9 2.6-5.9 5.9v45.2c0 3.3 2.6 5.9 5.9 5.9z"/><path d="m419.3 383.7c3.3 0 5.9-2.6 5.9-5.9v-45.2c0-3.3-2.6-5.9-5.9-5.9s-5.9 2.6-5.9 5.9v45.2c0 3.3 2.6 5.9 5.9 5.9z"/><path d="m446.8 383.7c3.3 0 5.9-2.6 5.9-5.9v-45.2c0-3.3-2.6-5.9-5.9-5.9s-5.9 2.6-5.9 5.9v45.2c0 3.3 2.7 5.9 5.9 5.9z"/></g></svg>